<svg width="25" height="22" viewBox="0 0 25 22" fill="none" xmlns="http://www.w3.org/2000/svg">
<g clip-path="url(#clip0_108_4405)">
<path d="M0 1.95399C0 0.953266 0.797991 0.144775 1.78571 0.144775H23.2143C24.202 0.144775 25 0.953266 25 1.95399C25 2.95471 24.202 3.7632 23.2143 3.7632H1.78571C0.797991 3.7632 0 2.95471 0 1.95399ZM0 11C0 9.99932 0.797991 9.19083 1.78571 9.19083H23.2143C24.202 9.19083 25 9.99932 25 11C25 12.0008 24.202 12.8092 23.2143 12.8092H1.78571C0.797991 12.8092 0 12.0008 0 11ZM25 20.0461C25 21.0468 24.202 21.8553 23.2143 21.8553H1.78571C0.797991 21.8553 0 21.0468 0 20.0461C0 19.0454 0.797991 18.2369 1.78571 18.2369H23.2143C24.202 18.2369 25 19.0454 25 20.0461Z" fill="white"/>
</g>
<defs>
<clipPath id="clip0_108_4405">
<rect width="25" height="22" fill="white"/>
</clipPath>
</defs>
</svg>
