<svg width="25" height="22" viewBox="0 0 25 22" fill="none" xmlns="http://www.w3.org/2000/svg">
<path d="M3.125 2.35714C2.69531 2.35714 2.34375 2.71071 2.34375 3.14286V18.8571C2.34375 19.2893 2.69531 19.6429 3.125 19.6429H21.875C22.3047 19.6429 22.6562 19.2893 22.6562 18.8571V3.14286C22.6562 2.71071 22.3047 2.35714 21.875 2.35714H3.125ZM0 3.14286C0 1.40938 1.40137 0 3.125 0H21.875C23.5986 0 25 1.40938 25 3.14286V18.8571C25 20.5906 23.5986 22 21.875 22H3.125C1.40137 22 0 20.5906 0 18.8571V3.14286ZM8.54492 7.02232C9.00391 6.56071 9.74609 6.56071 10.2002 7.02232L12.4951 9.33036L14.79 7.02232C15.249 6.56071 15.9912 6.56071 16.4453 7.02232C16.8994 7.48393 16.9043 8.23036 16.4453 8.68705L14.1504 10.9951L16.4453 13.3031C16.9043 13.7647 16.9043 14.5112 16.4453 14.9679C15.9863 15.4246 15.2441 15.4295 14.79 14.9679L12.4951 12.6598L10.2002 14.9679C9.74121 15.4295 8.99902 15.4295 8.54492 14.9679C8.09082 14.5062 8.08594 13.7598 8.54492 13.3031L10.8398 10.9951L8.54492 8.68705C8.08594 8.22545 8.08594 7.47902 8.54492 7.02232Z" fill="white"/>
</svg>
