<svg width="512" height="539" viewBox="0 0 512 539" fill="none" xmlns="http://www.w3.org/2000/svg">
<path d="M512 461.501H486.4V487.101H512V461.501Z" fill="#21201E"/>
<path d="M512 435.901H486.4V461.501H512V435.901Z" fill="#21201E"/>
<path d="M512 410.301H486.4V435.901H512V410.301Z" fill="#21201E"/>
<path d="M512 384.701H486.4V410.301H512V384.701Z" fill="#21201E"/>
<path d="M512 359.1H486.4V384.701H512V359.1Z" fill="#21201E"/>
<path d="M512 333.5H486.4V359.1H512V333.5Z" fill="#21201E"/>
<path d="M512 307.9H486.4V333.5H512V307.9Z" fill="#21201E"/>
<path d="M512 282.3H486.4V307.9H512V282.3Z" fill="#21201E"/>
<path d="M512 256.7H486.4V282.3H512V256.7Z" fill="#21201E"/>
<path d="M512 231.1H486.4V256.7H512V231.1Z" fill="#21201E"/>
<path d="M512 205.5H486.4V231.1H512V205.5Z" fill="#21201E"/>
<path d="M486.401 487.101H460.801V512.701H486.401V487.101Z" fill="#21201E"/>
<path d="M486.401 461.501H460.801V487.101H486.401V461.501Z" fill="#1935F0"/>
<path d="M486.401 435.901H460.801V461.501H486.401V435.901Z" fill="#1935F0"/>
<path d="M486.401 410.301H460.801V435.901H486.401V410.301Z" fill="#1935F0"/>
<path d="M486.401 384.701H460.801V410.301H486.401V384.701Z" fill="#21201E"/>
<path d="M486.401 359.1H460.801V384.701H486.401V359.1Z" fill="#1935F0"/>
<path d="M486.401 333.5H460.801V359.1H486.401V333.5Z" fill="#2945FE"/>
<path d="M486.401 307.9H460.801V333.5H486.401V307.9Z" fill="#536AFF"/>
<path d="M486.401 282.3H460.801V307.9H486.401V282.3Z" fill="#21201E"/>
<path d="M486.401 256.7H460.801V282.3H486.401V256.7Z" fill="#2945FE"/>
<path d="M486.401 231.1H460.801V256.7H486.401V231.1Z" fill="#2945FE"/>
<path d="M486.401 205.5H460.801V231.1H486.401V205.5Z" fill="#536AFF"/>
<path d="M486.401 179.9H460.801V205.5H486.401V179.9Z" fill="#21201E"/>
<path d="M460.799 512.701H435.199V538.301H460.799V512.701Z" fill="#21201E"/>
<path d="M460.799 487.101H435.199V512.701H460.799V487.101Z" fill="#1935F0"/>
<path d="M460.799 461.501H435.199V487.101H460.799V461.501Z" fill="#1935F0"/>
<path d="M460.799 435.901H435.199V461.501H460.799V435.901Z" fill="#2945FE"/>
<path d="M460.799 410.301H435.199V435.901H460.799V410.301Z" fill="#1935F0"/>
<path d="M460.799 384.701H435.199V410.301H460.799V384.701Z" fill="#21201E"/>
<path d="M460.799 359.1H435.199V384.701H460.799V359.1Z" fill="#1935F0"/>
<path d="M460.799 333.5H435.199V359.1H460.799V333.5Z" fill="#2945FE"/>
<path d="M460.799 307.9H435.199V333.5H460.799V307.9Z" fill="#536AFF"/>
<path d="M460.799 282.3H435.199V307.9H460.799V282.3Z" fill="#21201E"/>
<path d="M460.799 256.7H435.199V282.3H460.799V256.7Z" fill="#2945FE"/>
<path d="M460.799 231.1H435.199V256.7H460.799V231.1Z" fill="#2945FE"/>
<path d="M460.799 205.5H435.199V231.1H460.799V205.5Z" fill="#536AFF"/>
<path d="M460.799 179.9H435.199V205.5H460.799V179.9Z" fill="#536AFF"/>
<path d="M460.799 154.3H435.199V179.9H460.799V154.3Z" fill="#21201E"/>
<path d="M435.2 512.701H409.6V538.301H435.2V512.701Z" fill="#21201E"/>
<path d="M435.2 487.101H409.6V512.701H435.2V487.101Z" fill="#1935F0"/>
<path d="M435.2 461.501H409.6V487.101H435.2V461.501Z" fill="#2945FE"/>
<path d="M435.2 435.901H409.6V461.501H435.2V435.901Z" fill="#2945FE"/>
<path d="M435.2 410.301H409.6V435.901H435.2V410.301Z" fill="#1935F0"/>
<path d="M435.2 384.701H409.6V410.301H435.2V384.701Z" fill="#21201E"/>
<path d="M435.2 359.1H409.6V384.701H435.2V359.1Z" fill="#1935F0"/>
<path d="M435.2 333.5H409.6V359.1H435.2V333.5Z" fill="#2945FE"/>
<path d="M435.2 307.9H409.6V333.5H435.2V307.9Z" fill="#536AFF"/>
<path d="M435.2 282.3H409.6V307.9H435.2V282.3Z" fill="#21201E"/>
<path d="M435.2 256.7H409.6V282.3H435.2V256.7Z" fill="#2945FE"/>
<path d="M435.2 231.1H409.6V256.7H435.2V231.1Z" fill="#2945FE"/>
<path d="M435.2 205.5H409.6V231.1H435.2V205.5Z" fill="#2945FE"/>
<path d="M435.2 179.9H409.6V205.5H435.2V179.9Z" fill="#536AFF"/>
<path d="M435.2 154.3H409.6V179.9H435.2V154.3Z" fill="#21201E"/>
<path d="M435.2 128.7H409.6V154.3H435.2V128.7Z" fill="#21201E"/>
<path d="M409.601 512.701H384.001V538.301H409.601V512.701Z" fill="#21201E"/>
<path d="M409.601 487.101H384.001V512.701H409.601V487.101Z" fill="#1935F0"/>
<path d="M409.601 461.501H384.001V487.101H409.601V461.501Z" fill="#2945FE"/>
<path d="M409.601 435.901H384.001V461.501H409.601V435.901Z" fill="#2945FE"/>
<path d="M409.601 410.301H384.001V435.901H409.601V410.301Z" fill="#1935F0"/>
<path d="M409.601 384.701H384.001V410.301H409.601V384.701Z" fill="#21201E"/>
<path d="M409.601 359.1H384.001V384.701H409.601V359.1Z" fill="#1935F0"/>
<path d="M409.601 333.5H384.001V359.1H409.601V333.5Z" fill="#2945FE"/>
<path d="M409.601 307.9H384.001V333.5H409.601V307.9Z" fill="#536AFF"/>
<path d="M409.601 282.3H384.001V307.9H409.601V282.3Z" fill="#21201E"/>
<path d="M409.601 256.7H384.001V282.3H409.601V256.7Z" fill="#2945FE"/>
<path d="M409.601 231.1H384.001V256.7H409.601V231.1Z" fill="#2945FE"/>
<path d="M409.601 205.5H384.001V231.1H409.601V205.5Z" fill="#2945FE"/>
<path d="M409.601 179.9H384.001V205.5H409.601V179.9Z" fill="#536AFF"/>
<path d="M409.601 154.3H384.001V179.9H409.601V154.3Z" fill="#21201E"/>
<path d="M409.601 128.7H384.001V154.3H409.601V128.7Z" fill="#D3FFB6"/>
<path d="M409.601 103.099H384.001V128.699H409.601V103.099Z" fill="#21201E"/>
<path d="M384 512.701H358.4V538.301H384V512.701Z" fill="#21201E"/>
<path d="M384 487.101H358.4V512.701H384V487.101Z" fill="#1935F0"/>
<path d="M384 461.501H358.4V487.101H384V461.501Z" fill="#2945FE"/>
<path d="M384 435.901H358.4V461.501H384V435.901Z" fill="#2945FE"/>
<path d="M384 410.301H358.4V435.901H384V410.301Z" fill="#1935F0"/>
<path d="M384 384.701H358.4V410.301H384V384.701Z" fill="#21201E"/>
<path d="M384 359.1H358.4V384.701H384V359.1Z" fill="#1935F0"/>
<path d="M384 333.5H358.4V359.1H384V333.5Z" fill="#21201E"/>
<path d="M384 307.9H358.4V333.5H384V307.9Z" fill="#536AFF"/>
<path d="M384 282.3H358.4V307.9H384V282.3Z" fill="#21201E"/>
<path d="M384 256.7H358.4V282.3H384V256.7Z" fill="#2945FE"/>
<path d="M384 231.1H358.4V256.7H384V231.1Z" fill="#2945FE"/>
<path d="M384 205.5H358.4V231.1H384V205.5Z" fill="#2945FE"/>
<path d="M384 179.9H358.4V205.5H384V179.9Z" fill="#536AFF"/>
<path d="M384 154.3H358.4V179.9H384V154.3Z" fill="#21201E"/>
<path d="M384 128.7H358.4V154.3H384V128.7Z" fill="#8DDD5F"/>
<path d="M384 103.099H358.4V128.699H384V103.099Z" fill="#D3FFB6"/>
<path d="M384 77.4992H358.4V103.099H384V77.4992Z" fill="#21201E"/>
<path d="M358.401 512.701H332.801V538.301H358.401V512.701Z" fill="#21201E"/>
<path d="M358.401 487.101H332.801V512.701H358.401V487.101Z" fill="#1935F0"/>
<path d="M358.401 461.501H332.801V487.101H358.401V461.501Z" fill="#2945FE"/>
<path d="M358.401 435.901H332.801V461.501H358.401V435.901Z" fill="#2945FE"/>
<path d="M358.401 410.301H332.801V435.901H358.401V410.301Z" fill="#1935F0"/>
<path d="M358.401 384.701H332.801V410.301H358.401V384.701Z" fill="#21201E"/>
<path d="M358.401 359.1H332.801V384.701H358.401V359.1Z" fill="#1935F0"/>
<path d="M358.401 333.5H332.801V359.1H358.401V333.5Z" fill="#2945FE"/>
<path d="M358.401 307.9H332.801V333.5H358.401V307.9Z" fill="#536AFF"/>
<path d="M358.401 282.3H332.801V307.9H358.401V282.3Z" fill="#21201E"/>
<path d="M358.401 256.7H332.801V282.3H358.401V256.7Z" fill="#2945FE"/>
<path d="M358.401 231.1H332.801V256.7H358.401V231.1Z" fill="#2945FE"/>
<path d="M358.401 205.5H332.801V231.1H358.401V205.5Z" fill="#2945FE"/>
<path d="M358.401 179.9H332.801V205.5H358.401V179.9Z" fill="#536AFF"/>
<path d="M358.401 154.3H332.801V179.9H358.401V154.3Z" fill="#21201E"/>
<path d="M358.401 128.7H332.801V154.3H358.401V128.7Z" fill="#62A338"/>
<path d="M358.401 103.099H332.801V128.699H358.401V103.099Z" fill="#62A338"/>
<path d="M358.401 77.4992H332.801V103.099H358.401V77.4992Z" fill="#D3FFB6"/>
<path d="M358.401 51.899H332.801V77.4992H358.401V51.899Z" fill="#21201E"/>
<path d="M332.799 512.701H307.199V538.301H332.799V512.701Z" fill="#21201E"/>
<path d="M332.799 487.101H307.199V512.701H332.799V487.101Z" fill="#1935F0"/>
<path d="M332.799 461.501H307.199V487.101H332.799V461.501Z" fill="#2945FE"/>
<path d="M332.799 435.901H307.199V461.501H332.799V435.901Z" fill="#2945FE"/>
<path d="M332.799 410.301H307.199V435.901H332.799V410.301Z" fill="#1935F0"/>
<path d="M332.799 384.701H307.199V410.301H332.799V384.701Z" fill="#1935F0"/>
<path d="M332.799 359.1H307.199V384.701H332.799V359.1Z" fill="#21201E"/>
<path d="M332.799 333.5H307.199V359.1H332.799V333.5Z" fill="#21201E"/>
<path d="M332.799 307.9H307.199V333.5H332.799V307.9Z" fill="#21201E"/>
<path d="M332.799 282.3H307.199V307.9H332.799V282.3Z" fill="#2945FE"/>
<path d="M332.799 256.7H307.199V282.3H332.799V256.7Z" fill="#2945FE"/>
<path d="M332.799 231.1H307.199V256.7H332.799V231.1Z" fill="#2945FE"/>
<path d="M332.799 205.5H307.199V231.1H332.799V205.5Z" fill="#2945FE"/>
<path d="M332.799 179.9H307.199V205.5H332.799V179.9Z" fill="#536AFF"/>
<path d="M332.799 154.3H307.199V179.9H332.799V154.3Z" fill="#21201E"/>
<path d="M332.799 128.7H307.199V154.3H332.799V128.7Z" fill="#62A338"/>
<path d="M332.799 103.099H307.199V128.699H332.799V103.099Z" fill="#62A338"/>
<path d="M332.799 77.4992H307.199V103.099H332.799V77.4992Z" fill="#8DDD5F"/>
<path d="M332.799 51.899H307.199V77.4992H332.799V51.899Z" fill="#D3FFB6"/>
<path d="M332.799 26.299H307.199V51.8991H332.799V26.299Z" fill="#21201E"/>
<path d="M307.2 512.701H281.6V538.301H307.2V512.701Z" fill="#21201E"/>
<path d="M307.2 487.101H281.6V512.701H307.2V487.101Z" fill="#1935F0"/>
<path d="M307.2 461.501H281.6V487.101H307.2V461.501Z" fill="#2945FE"/>
<path d="M307.2 435.901H281.6V461.501H307.2V435.901Z" fill="#2945FE"/>
<path d="M307.2 410.301H281.6V435.901H307.2V410.301Z" fill="#2945FE"/>
<path d="M307.2 384.701H281.6V410.301H307.2V384.701Z" fill="#2945FE"/>
<path d="M307.2 359.1H281.6V384.701H307.2V359.1Z" fill="#2945FE"/>
<path d="M307.2 333.5H281.6V359.1H307.2V333.5Z" fill="#2945FE"/>
<path d="M307.2 307.9H281.6V333.5H307.2V307.9Z" fill="#2945FE"/>
<path d="M307.2 282.3H281.6V307.9H307.2V282.3Z" fill="#2945FE"/>
<path d="M307.2 256.7H281.6V282.3H307.2V256.7Z" fill="#2945FE"/>
<path d="M307.2 231.1H281.6V256.7H307.2V231.1Z" fill="#2945FE"/>
<path d="M307.2 205.5H281.6V231.1H307.2V205.5Z" fill="#2945FE"/>
<path d="M307.2 179.9H281.6V205.5H307.2V179.9Z" fill="#536AFF"/>
<path d="M307.2 154.3H281.6V179.9H307.2V154.3Z" fill="#21201E"/>
<path d="M307.2 128.7H281.6V154.3H307.2V128.7Z" fill="#62A338"/>
<path d="M307.2 103.099H281.6V128.699H307.2V103.099Z" fill="#62A338"/>
<path d="M307.2 77.4992H281.6V103.099H307.2V77.4992Z" fill="#8DDD5F"/>
<path d="M307.2 51.899H281.6V77.4992H307.2V51.899Z" fill="#D3FFB6"/>
<path d="M307.2 26.299H281.6V51.8991H307.2V26.299Z" fill="#D3FFB6"/>
<path d="M307.2 0.698975H281.6V26.2991H307.2V0.698975Z" fill="#21201E"/>
<path d="M281.601 512.701H256V538.301H281.601V512.701Z" fill="#21201E"/>
<path d="M281.601 487.101H256V512.701H281.601V487.101Z" fill="#1935F0"/>
<path d="M281.601 461.501H256V487.101H281.601V461.501Z" fill="#2945FE"/>
<path d="M281.601 435.901H256V461.501H281.601V435.901Z" fill="#2945FE"/>
<path d="M281.601 410.301H256V435.901H281.601V410.301Z" fill="#2945FE"/>
<path d="M281.601 384.701H256V410.301H281.601V384.701Z" fill="#2945FE"/>
<path d="M281.601 359.1H256V384.701H281.601V359.1Z" fill="#2945FE"/>
<path d="M281.601 333.5H256V359.1H281.601V333.5Z" fill="#2945FE"/>
<path d="M281.601 307.9H256V333.5H281.601V307.9Z" fill="#2945FE"/>
<path d="M281.601 282.3H256V307.9H281.601V282.3Z" fill="#2945FE"/>
<path d="M281.601 256.7H256V282.3H281.601V256.7Z" fill="#2945FE"/>
<path d="M281.601 231.1H256V256.7H281.601V231.1Z" fill="#2945FE"/>
<path d="M281.601 205.5H256V231.1H281.601V205.5Z" fill="#2945FE"/>
<path d="M281.601 179.9H256V205.5H281.601V179.9Z" fill="#536AFF"/>
<path d="M281.601 154.3H256V179.9H281.601V154.3Z" fill="#21201E"/>
<path d="M281.601 128.7H256V154.3H281.601V128.7Z" fill="#62A338"/>
<path d="M281.601 103.099H256V128.699H281.601V103.099Z" fill="#62A338"/>
<path d="M281.601 77.4992H256V103.099H281.601V77.4992Z" fill="#8DDD5F"/>
<path d="M281.601 51.899H256V77.4992H281.601V51.899Z" fill="#D3FFB6"/>
<path d="M281.601 26.299H256V51.8991H281.601V26.299Z" fill="#21201E"/>
<path d="M256 512.701H230.399V538.301H256V512.701Z" fill="#21201E"/>
<path d="M256 487.101H230.399V512.701H256V487.101Z" fill="#1935F0"/>
<path d="M256 461.501H230.399V487.101H256V461.501Z" fill="#2945FE"/>
<path d="M256 435.901H230.399V461.501H256V435.901Z" fill="#2945FE"/>
<path d="M256 410.301H230.399V435.901H256V410.301Z" fill="#2945FE"/>
<path d="M256 384.701H230.399V410.301H256V384.701Z" fill="#2945FE"/>
<path d="M256 359.1H230.399V384.701H256V359.1Z" fill="#2945FE"/>
<path d="M256 333.5H230.399V359.1H256V333.5Z" fill="#2945FE"/>
<path d="M256 307.9H230.399V333.5H256V307.9Z" fill="#2945FE"/>
<path d="M256 282.3H230.399V307.9H256V282.3Z" fill="#2945FE"/>
<path d="M256 256.7H230.399V282.3H256V256.7Z" fill="#2945FE"/>
<path d="M256 231.1H230.399V256.7H256V231.1Z" fill="#2945FE"/>
<path d="M256 205.5H230.399V231.1H256V205.5Z" fill="#2945FE"/>
<path d="M256 179.9H230.399V205.5H256V179.9Z" fill="#536AFF"/>
<path d="M256 154.3H230.399V179.9H256V154.3Z" fill="#21201E"/>
<path d="M256 128.7H230.399V154.3H256V128.7Z" fill="#62A338"/>
<path d="M256 103.099H230.399V128.699H256V103.099Z" fill="#8DDD5F"/>
<path d="M256 77.4992H230.399V103.099H256V77.4992Z" fill="#8DDD5F"/>
<path d="M256 51.899H230.399V77.4992H256V51.899Z" fill="#21201E"/>
<path d="M230.4 512.701H204.8V538.301H230.4V512.701Z" fill="#21201E"/>
<path d="M230.4 487.101H204.8V512.701H230.4V487.101Z" fill="#1935F0"/>
<path d="M230.4 461.501H204.8V487.101H230.4V461.501Z" fill="#2945FE"/>
<path d="M230.4 435.901H204.8V461.501H230.4V435.901Z" fill="#2945FE"/>
<path d="M230.4 410.301H204.8V435.901H230.4V410.301Z" fill="#2945FE"/>
<path d="M230.4 384.701H204.8V410.301H230.4V384.701Z" fill="#2945FE"/>
<path d="M230.4 359.1H204.8V384.701H230.4V359.1Z" fill="#2945FE"/>
<path d="M230.4 333.5H204.8V359.1H230.4V333.5Z" fill="#2945FE"/>
<path d="M230.4 307.9H204.8V333.5H230.4V307.9Z" fill="#2945FE"/>
<path d="M230.4 282.3H204.8V307.9H230.4V282.3Z" fill="#2945FE"/>
<path d="M230.4 256.7H204.8V282.3H230.4V256.7Z" fill="#2945FE"/>
<path d="M230.4 231.1H204.8V256.7H230.4V231.1Z" fill="#2945FE"/>
<path d="M230.4 205.5H204.8V231.1H230.4V205.5Z" fill="#2945FE"/>
<path d="M230.4 179.9H204.8V205.5H230.4V179.9Z" fill="#536AFF"/>
<path d="M230.4 154.3H204.8V179.9H230.4V154.3Z" fill="#21201E"/>
<path d="M230.4 128.7H204.8V154.3H230.4V128.7Z" fill="#62A338"/>
<path d="M230.4 103.099H204.8V128.699H230.4V103.099Z" fill="#8DDD5F"/>
<path d="M230.4 77.4992H204.8V103.099H230.4V77.4992Z" fill="#21201E"/>
<path d="M204.797 512.701H179.197V538.301H204.797V512.701Z" fill="#21201E"/>
<path d="M204.797 487.101H179.197V512.701H204.797V487.101Z" fill="#1935F0"/>
<path d="M204.797 461.501H179.197V487.101H204.797V461.501Z" fill="#2945FE"/>
<path d="M204.797 435.901H179.197V461.501H204.797V435.901Z" fill="#2945FE"/>
<path d="M204.797 410.301H179.197V435.901H204.797V410.301Z" fill="#2945FE"/>
<path d="M204.797 384.701H179.197V410.301H204.797V384.701Z" fill="#2945FE"/>
<path d="M204.797 359.1H179.197V384.701H204.797V359.1Z" fill="#2945FE"/>
<path d="M204.797 333.5H179.197V359.1H204.797V333.5Z" fill="#2945FE"/>
<path d="M204.797 307.9H179.197V333.5H204.797V307.9Z" fill="#2945FE"/>
<path d="M204.797 282.3H179.197V307.9H204.797V282.3Z" fill="#2945FE"/>
<path d="M204.797 256.7H179.197V282.3H204.797V256.7Z" fill="#2945FE"/>
<path d="M204.797 231.1H179.197V256.7H204.797V231.1Z" fill="#2945FE"/>
<path d="M204.797 205.5H179.197V231.1H204.797V205.5Z" fill="#2945FE"/>
<path d="M204.797 179.9H179.197V205.5H204.797V179.9Z" fill="#536AFF"/>
<path d="M204.797 154.3H179.197V179.9H204.797V154.3Z" fill="#21201E"/>
<path d="M204.797 128.7H179.197V154.3H204.797V128.7Z" fill="#8DDD5F"/>
<path d="M204.797 103.099H179.197V128.699H204.797V103.099Z" fill="#21201E"/>
<path d="M179.2 512.701H153.6V538.301H179.2V512.701Z" fill="#21201E"/>
<path d="M179.2 487.101H153.6V512.701H179.2V487.101Z" fill="#1935F0"/>
<path d="M179.2 461.501H153.6V487.101H179.2V461.501Z" fill="#2945FE"/>
<path d="M179.2 435.901H153.6V461.501H179.2V435.901Z" fill="#2945FE"/>
<path d="M179.2 410.301H153.6V435.901H179.2V410.301Z" fill="#2945FE"/>
<path d="M179.2 384.701H153.6V410.301H179.2V384.701Z" fill="#2945FE"/>
<path d="M179.2 359.1H153.6V384.701H179.2V359.1Z" fill="#2945FE"/>
<path d="M179.2 333.5H153.6V359.1H179.2V333.5Z" fill="#2945FE"/>
<path d="M179.2 307.9H153.6V333.5H179.2V307.9Z" fill="#2945FE"/>
<path d="M179.2 282.3H153.6V307.9H179.2V282.3Z" fill="#2945FE"/>
<path d="M179.2 256.7H153.6V282.3H179.2V256.7Z" fill="#2945FE"/>
<path d="M179.2 231.1H153.6V256.7H179.2V231.1Z" fill="#2945FE"/>
<path d="M179.2 205.5H153.6V231.1H179.2V205.5Z" fill="#2945FE"/>
<path d="M179.2 179.9H153.6V205.5H179.2V179.9Z" fill="#536AFF"/>
<path d="M179.2 154.3H153.6V179.9H179.2V154.3Z" fill="#21201E"/>
<path d="M179.2 128.7H153.6V154.3H179.2V128.7Z" fill="#21201E"/>
<path d="M153.601 512.701H128V538.301H153.601V512.701Z" fill="#21201E"/>
<path d="M153.601 487.101H128V512.701H153.601V487.101Z" fill="#1935F0"/>
<path d="M153.601 461.501H128V487.101H153.601V461.501Z" fill="#2945FE"/>
<path d="M153.601 435.901H128V461.501H153.601V435.901Z" fill="#2945FE"/>
<path d="M153.601 410.301H128V435.901H153.601V410.301Z" fill="#2945FE"/>
<path d="M153.601 384.701H128V410.301H153.601V384.701Z" fill="#2945FE"/>
<path d="M153.601 359.1H128V384.701H153.601V359.1Z" fill="#2945FE"/>
<path d="M153.601 333.5H128V359.1H153.601V333.5Z" fill="#2945FE"/>
<path d="M153.601 307.9H128V333.5H153.601V307.9Z" fill="#2945FE"/>
<path d="M153.601 282.3H128V307.9H153.601V282.3Z" fill="#2945FE"/>
<path d="M153.601 256.7H128V282.3H153.601V256.7Z" fill="#2945FE"/>
<path d="M153.601 231.1H128V256.7H153.601V231.1Z" fill="#2945FE"/>
<path d="M153.601 205.5H128V231.1H153.601V205.5Z" fill="#2945FE"/>
<path d="M153.601 179.9H128V205.5H153.601V179.9Z" fill="#536AFF"/>
<path d="M153.601 154.3H128V179.9H153.601V154.3Z" fill="#21201E"/>
<path d="M128 512.701H102.399V538.301H128V512.701Z" fill="#21201E"/>
<path d="M128 487.101H102.399V512.701H128V487.101Z" fill="#1935F0"/>
<path d="M128 461.501H102.399V487.101H128V461.501Z" fill="#2945FE"/>
<path d="M128 435.901H102.399V461.501H128V435.901Z" fill="#2945FE"/>
<path d="M128 410.301H102.399V435.901H128V410.301Z" fill="#2945FE"/>
<path d="M128 384.701H102.399V410.301H128V384.701Z" fill="#2945FE"/>
<path d="M128 359.1H102.399V384.701H128V359.1Z" fill="#2945FE"/>
<path d="M128 333.5H102.399V359.1H128V333.5Z" fill="#2945FE"/>
<path d="M128 307.9H102.399V333.5H128V307.9Z" fill="#2945FE"/>
<path d="M128 282.3H102.399V307.9H128V282.3Z" fill="#2945FE"/>
<path d="M128 256.7H102.399V282.3H128V256.7Z" fill="#2945FE"/>
<path d="M128 231.1H102.399V256.7H128V231.1Z" fill="#2945FE"/>
<path d="M128 205.5H102.399V231.1H128V205.5Z" fill="#2945FE"/>
<path d="M128 179.9H102.399V205.5H128V179.9Z" fill="#536AFF"/>
<path d="M128 154.3H102.399V179.9H128V154.3Z" fill="#21201E"/>
<path d="M102.4 512.701H76.7998V538.301H102.4V512.701Z" fill="#21201E"/>
<path d="M102.4 487.101H76.7998V512.701H102.4V487.101Z" fill="#1935F0"/>
<path d="M102.4 461.501H76.7998V487.101H102.4V461.501Z" fill="#1935F0"/>
<path d="M102.4 435.901H76.7998V461.501H102.4V435.901Z" fill="#2945FE"/>
<path d="M102.4 410.301H76.7998V435.901H102.4V410.301Z" fill="#2945FE"/>
<path d="M102.4 384.701H76.7998V410.301H102.4V384.701Z" fill="#2945FE"/>
<path d="M102.4 359.1H76.7998V384.701H102.4V359.1Z" fill="#2945FE"/>
<path d="M102.4 333.5H76.7998V359.1H102.4V333.5Z" fill="#2945FE"/>
<path d="M102.4 307.9H76.7998V333.5H102.4V307.9Z" fill="#2945FE"/>
<path d="M102.4 282.3H76.7998V307.9H102.4V282.3Z" fill="#2945FE"/>
<path d="M102.4 256.7H76.7998V282.3H102.4V256.7Z" fill="#2945FE"/>
<path d="M102.4 231.1H76.7998V256.7H102.4V231.1Z" fill="#2945FE"/>
<path d="M102.4 205.5H76.7998V231.1H102.4V205.5Z" fill="#2945FE"/>
<path d="M102.4 179.9H76.7998V205.5H102.4V179.9Z" fill="#536AFF"/>
<path d="M102.4 154.3H76.7998V179.9H102.4V154.3Z" fill="#21201E"/>
<path d="M76.7968 512.701H51.1968V538.301H76.7968V512.701Z" fill="#21201E"/>
<path d="M76.7968 487.101H51.1968V512.701H76.7968V487.101Z" fill="#1935F0"/>
<path d="M76.7968 461.501H51.1968V487.101H76.7968V461.501Z" fill="#1935F0"/>
<path d="M76.7968 435.901H51.1968V461.501H76.7968V435.901Z" fill="#1935F0"/>
<path d="M76.7968 410.301H51.1968V435.901H76.7968V410.301Z" fill="#2945FE"/>
<path d="M76.7968 384.701H51.1968V410.301H76.7968V384.701Z" fill="#2945FE"/>
<path d="M76.7968 359.1H51.1968V384.701H76.7968V359.1Z" fill="#2945FE"/>
<path d="M76.7968 333.5H51.1968V359.1H76.7968V333.5Z" fill="#2945FE"/>
<path d="M76.7968 307.9H51.1968V333.5H76.7968V307.9Z" fill="#2945FE"/>
<path d="M76.7968 282.3H51.1968V307.9H76.7968V282.3Z" fill="#2945FE"/>
<path d="M76.7968 256.7H51.1968V282.3H76.7968V256.7Z" fill="#2945FE"/>
<path d="M76.7968 231.1H51.1968V256.7H76.7968V231.1Z" fill="#2945FE"/>
<path d="M76.7968 205.5H51.1968V231.1H76.7968V205.5Z" fill="#536AFF"/>
<path d="M76.7968 179.9H51.1968V205.5H76.7968V179.9Z" fill="#536AFF"/>
<path d="M76.7968 154.3H51.1968V179.9H76.7968V154.3Z" fill="#21201E"/>
<path d="M51.1993 487.101H25.5991V512.701H51.1993V487.101Z" fill="#21201E"/>
<path d="M51.1993 461.501H25.5991V487.101H51.1993V461.501Z" fill="#1935F0"/>
<path d="M51.1993 435.901H25.5991V461.501H51.1993V435.901Z" fill="#1935F0"/>
<path d="M51.1993 410.301H25.5991V435.901H51.1993V410.301Z" fill="#2945FE"/>
<path d="M51.1993 384.701H25.5991V410.301H51.1993V384.701Z" fill="#2945FE"/>
<path d="M51.1993 359.1H25.5991V384.701H51.1993V359.1Z" fill="#2945FE"/>
<path d="M51.1993 333.5H25.5991V359.1H51.1993V333.5Z" fill="#2945FE"/>
<path d="M51.1993 307.9H25.5991V333.5H51.1993V307.9Z" fill="#2945FE"/>
<path d="M51.1993 282.3H25.5991V307.9H51.1993V282.3Z" fill="#2945FE"/>
<path d="M51.1993 256.7H25.5991V282.3H51.1993V256.7Z" fill="#2945FE"/>
<path d="M51.1993 231.1H25.5991V256.7H51.1993V231.1Z" fill="#2945FE"/>
<path d="M51.1993 205.5H25.5991V231.1H51.1993V205.5Z" fill="#536AFF"/>
<path d="M51.1993 179.9H25.5991V205.5H51.1993V179.9Z" fill="#21201E"/>
<path d="M25.6001 461.501H0V487.101H25.6001V461.501Z" fill="#21201E"/>
<path d="M25.6001 435.901H0V461.501H25.6001V435.901Z" fill="#21201E"/>
<path d="M25.6001 410.301H0V435.901H25.6001V410.301Z" fill="#21201E"/>
<path d="M25.6001 384.701H0V410.301H25.6001V384.701Z" fill="#21201E"/>
<path d="M25.6001 359.1H0V384.701H25.6001V359.1Z" fill="#21201E"/>
<path d="M25.6001 333.5H0V359.1H25.6001V333.5Z" fill="#21201E"/>
<path d="M25.6001 307.9H0V333.5H25.6001V307.9Z" fill="#21201E"/>
<path d="M25.6001 282.3H0V307.9H25.6001V282.3Z" fill="#21201E"/>
<path d="M25.6001 256.7H0V282.3H25.6001V256.7Z" fill="#21201E"/>
<path d="M25.6001 231.1H0V256.7H25.6001V231.1Z" fill="#21201E"/>
<path d="M25.6001 205.5H0V231.1H25.6001V205.5Z" fill="#21201E"/>
</svg>
