<svg width="614" height="77" viewBox="0 0 614 77" fill="none" xmlns="http://www.w3.org/2000/svg">
<path d="M38.1415 50.4175C33.9651 50.4161 29.8019 50.8862 25.731 51.8189L25.2708 51.9327C16.0324 54.1572 7.53529 58.7561 0.620529 65.2739L0 65.8634L10.3782 76.2416C16.8796 70.0067 25.29 66.1409 34.2554 65.2667C43.2208 64.3925 52.2195 66.5607 59.8029 71.4222C55.4822 65.5539 52.3534 58.8957 50.5933 51.8241C46.5097 50.8833 42.3321 50.4114 38.1415 50.4175Z" fill="white" fill-opacity="0.9"/>
<path d="M71.3808 16.5835C65.5318 20.8618 58.9074 23.9633 51.8757 25.7155C49.7969 34.6417 49.9929 43.9471 52.4459 52.7778C54.8989 61.6086 59.5302 69.6819 65.9151 76.2571L76.2933 65.8737C70.0729 59.3948 66.2076 51.0151 65.3169 42.0778C64.4261 33.1404 66.5615 24.1627 71.3808 16.5835Z" fill="white" fill-opacity="0.9"/>
<path d="M16.4844 4.79353C20.8449 10.6587 24.0077 17.3251 25.7922 24.4124C34.7203 26.4947 44.0285 26.3008 52.8622 23.8487C61.6958 21.3966 69.772 16.7647 76.3493 10.3782L65.9711 0C59.4627 6.24668 51.0389 10.1174 42.0598 10.9872C33.0808 11.8569 24.0707 9.67493 16.4844 4.79353Z" fill="white" fill-opacity="0.9"/>
<path d="M4.92235 59.6943C10.7778 55.4083 17.4088 52.2983 24.4481 50.5364C26.5546 41.6134 26.3716 32.3027 23.9162 23.4693C21.4609 14.6359 16.8127 6.56639 10.4036 0.010376L0.0253906 10.3886C6.24055 16.8721 10.101 25.2531 10.9888 34.1904C11.8766 43.1277 9.74051 52.1045 4.92235 59.684V59.6943Z" fill="white" fill-opacity="0.9"/>
<path fill-rule="evenodd" clip-rule="evenodd" d="M106.35 41.7396V75.2221H112.036H117.723V71.8835V68.5449L119.199 70.0862C121.915 72.9214 124.983 74.7134 128.768 75.6748C131.491 76.3667 135.794 76.3761 138.568 75.6963C146.199 73.8266 151.575 68.7109 154.21 60.8121C155.978 55.5122 155.989 48.2938 154.237 42.9125C153.46 40.5241 151.902 37.4338 150.597 35.6912C145.007 28.2269 135.299 25.5198 126.394 28.9431C124.108 29.822 121.19 31.8145 119.403 33.7154C118.604 34.5664 117.898 35.2626 117.836 35.2626C117.774 35.2626 117.723 29.1864 117.723 21.7599V8.25708H112.036H106.35V41.7396ZM164.747 41.7396V75.2221H170.433H176.12V41.7396V8.25708H170.433H164.747V41.7396ZM298.819 41.7396V75.2221H304.506H310.193L310.199 69.5685L310.207 63.9149L313.426 60.5537L316.645 57.1925L323.529 66.0022C327.316 70.8476 330.526 74.9055 330.663 75.0201C330.813 75.1446 333.789 75.205 338.064 75.1703L345.215 75.1123L341.962 70.9407C340.174 68.6464 335.533 62.6819 331.65 57.6863L324.59 48.6036L325.339 47.8062C325.751 47.3677 329.319 43.5509 333.268 39.3245C337.217 35.098 341.142 30.9235 341.992 30.0482L343.536 28.4564L336.324 28.4669L329.111 28.4777L324.3 33.8777C316.405 42.7373 310.56 49.1997 310.371 49.2777C310.273 49.3181 310.193 40.1048 310.193 28.8039V8.25708H304.506H298.819V41.7396ZM350.874 41.7396V75.2221H356.662H362.451L362.513 60.3471L362.575 45.4721L363.193 43.9033C364.857 39.6806 368.617 37.2387 373.455 37.2387C378.523 37.2387 382.325 39.7908 383.937 44.2746L384.446 45.6916L384.508 60.4569L384.57 75.2221H390.368H396.167L396.097 59.2493L396.028 43.2765L395.454 41.1736C394.55 37.8622 393.181 35.3955 390.91 32.9858C386.115 27.8969 377.882 26.0819 370.736 28.5378C367.898 29.5135 366.445 30.4131 364.278 32.5388L362.466 34.3157V21.2865V8.25708H356.67H350.874V41.7396ZM550.342 21.573V34.889L548.866 33.3562C546.306 30.6985 543.537 29.1063 539.717 28.0956C537.866 27.6058 537.097 27.5219 534.485 27.5257C531.9 27.5292 531.083 27.6188 529.236 28.102C521.31 30.1759 515.851 35.8836 513.459 44.5982C512.883 46.6946 512.857 47.0081 512.857 51.8392C512.857 56.6704 512.883 56.9839 513.459 59.0802C514.773 63.8675 516.583 67.0565 519.818 70.2821C522.405 72.8614 524.614 74.226 527.814 75.2212C535.405 77.5817 543.122 75.7104 548.647 70.169L550.342 68.469V71.8455V75.2221H556.138H561.934V41.7396V8.25708H556.138H550.342V21.573ZM207.157 27.5939C198.001 28.5692 190.472 34.0909 187.121 42.2885C185.831 45.4448 185.436 47.6753 185.429 51.8392C185.424 55.238 185.48 55.7878 186.046 57.9868C188.765 68.5502 197.198 75.3633 208.599 76.207C211.98 76.4571 216.692 75.7508 219.863 74.5186C223.468 73.1176 226.17 71.301 228.789 68.5184C232.812 64.2423 234.819 59.2833 235.104 52.9157C235.706 39.4555 226.615 29.0169 213.042 27.5816C210.736 27.3377 209.538 27.3404 207.157 27.5939ZM263.497 27.5713C257.493 28.2684 252.224 30.8096 248.404 34.851C244.026 39.4828 241.956 44.9436 241.954 51.8654C241.952 56.877 243.099 61.1667 245.484 65.0695C250.864 73.8749 262.079 78.1038 272.935 75.4208C281.01 73.4255 287.131 67.7268 289.18 60.2966C289.92 57.6132 290.52 57.8757 283.673 57.8861L277.713 57.8948L276.766 59.8551C274.656 64.2245 271.179 66.4438 266.454 66.4372C263.058 66.4326 260.648 65.4347 258.244 63.0367C256.536 61.3333 255.18 58.9149 254.488 56.3402C253.958 54.3639 253.954 49.3354 254.482 47.3383C255.782 42.4246 259.198 38.6847 263.416 37.5577C264.96 37.1451 268.001 37.1537 269.613 37.5752C272.669 38.3742 275.183 40.5322 276.745 43.6974L277.675 45.5818H283.673H289.672L289.516 44.6573C288.988 41.5207 287.029 37.6982 284.505 34.8817C282.398 32.5309 278.258 29.9109 274.87 28.785C271.741 27.745 266.666 27.2034 263.497 27.5713ZM426.464 27.577C419.262 28.4867 413.632 31.5706 409.586 36.8222C407.537 39.4821 406.221 42.3175 405.318 46.021C404.597 48.9762 404.579 54.6068 405.28 57.6127C406.694 63.6743 410.227 68.84 415.213 72.1373C421.095 76.0277 428.886 77.2207 436.218 75.3536C442.914 73.6485 448.227 69.4774 451.146 63.635C451.821 62.282 452.576 60.4457 452.576 60.1547C452.576 60.1095 449.845 60.0733 446.507 60.0744L440.438 60.0759L439.911 61.0075C438.454 63.5845 436.277 65.398 433.558 66.3002C432.063 66.7961 431.373 66.8971 429.477 66.8971C427.53 66.8971 426.927 66.8043 425.36 66.262C421.309 64.8601 418.319 61.6449 417.16 57.4423C416.911 56.5391 416.707 55.7241 416.707 55.631C416.707 55.5381 425.018 55.4619 435.176 55.4619C448.494 55.4619 453.686 55.3939 453.794 55.2178C454.054 54.796 453.977 49.2856 453.685 47.4481C452.294 38.6693 446.166 31.4261 437.906 28.7958C434.392 27.6769 429.662 27.1731 426.464 27.577ZM480.025 27.5869C469.722 28.4548 463.193 34.0737 462.115 43.002L461.989 44.0449H467.762H473.535L473.678 43.19C473.914 41.7901 474.97 39.8235 475.972 38.9161C479.433 35.7832 486.647 35.8581 489.94 39.0612C491.714 40.7858 492.383 42.7937 492.383 46.3918V48.4976L491.234 48.3724C490.603 48.3037 488.56 48.0815 486.696 47.8786C481.072 47.2665 475.469 47.7159 471.167 49.1242C468.673 49.9407 467.765 50.3827 465.996 51.6405C463.587 53.3542 462.207 55.2459 461.189 58.2305C460.384 60.5917 460.322 64.4221 461.052 66.7691C462.729 72.165 467.108 75.3444 473.937 76.1238C480.15 76.833 486.594 74.6093 490.926 70.2597L492.383 68.7981V72.01V75.2221H498.191H504L503.923 58.92C503.835 40.3432 503.917 41.2105 501.864 37.0191C501.01 35.2765 500.532 34.6255 498.961 33.0622C497.387 31.4966 496.705 31.0028 494.786 30.0363C492.068 28.668 489.182 27.8846 485.729 27.5777C483.088 27.343 482.919 27.3432 480.025 27.5869ZM589.274 27.5808C582.048 28.2851 576.681 31.1343 573.909 35.7373C572.831 37.5265 572.424 38.8886 572.279 41.1907C571.847 48.0376 575.272 52.6132 582.368 54.6722C583.442 54.9837 586.149 55.5372 588.383 55.9021C597.132 57.3308 598.257 57.6037 600.014 58.7226C602.29 60.1725 602.606 63.1495 600.696 65.1637C598.834 67.1275 593.947 68.0263 589.481 67.2265C586.386 66.6721 584.046 64.9523 583.163 62.5828C582.915 61.9178 582.712 61.229 582.712 61.0523C582.712 60.7787 581.853 60.7313 576.888 60.7313H571.064L571.215 61.8776C571.391 63.2044 572.021 65.1756 572.796 66.8225C574.497 70.4368 577.914 73.2643 582.384 74.7571C587.357 76.4176 593.94 76.6826 599.693 75.4535C606.484 74.0031 611.334 70.212 612.911 65.1225C613.235 64.0763 613.352 63.0953 613.35 61.4477C613.343 57.5335 612.377 54.9433 610.052 52.6055C607.093 49.6307 603.475 48.4374 593.101 47.0147C587.554 46.2539 585.001 45.2292 584.079 43.3946C582.49 40.2312 584.811 37.0938 589.274 36.3736C594.785 35.4842 599.156 37.5739 600.38 41.6845L600.756 42.9465L606.511 42.9469L612.266 42.9472L612.114 41.9043C611.407 37.0323 608.459 32.6269 604.313 30.2458C600.646 28.14 594.575 27.0639 589.274 27.5808ZM433.123 37.3017C436.452 38.441 439.231 40.922 440.733 44.0946C441.206 45.0938 441.655 46.183 441.73 46.515L441.868 47.1187H429.482H417.096L417.248 46.2954C417.501 44.9331 419.124 42.0727 420.449 40.6559C421.888 39.1163 423.625 37.9988 425.662 37.3017C426.788 36.9161 427.589 36.811 429.392 36.811C431.196 36.811 431.997 36.9161 433.123 37.3017ZM133.767 37.5867C138.263 38.7512 141.79 42.5983 143.008 47.6676C143.505 49.7346 143.505 53.9439 143.008 56.0108C141.806 61.0134 138.203 64.9437 133.767 66.092C132.047 66.5373 129.207 66.5373 127.487 66.092C123.106 64.958 119.667 61.1939 118.379 56.123C117.733 53.579 117.736 49.9181 118.386 47.4481C119.708 42.4242 122.863 38.9323 127.237 37.6536C128.925 37.1601 131.998 37.1284 133.767 37.5867ZM213.379 37.5864C216.735 38.455 219.788 41.0115 221.354 44.2645C223.931 49.6167 223.509 56.4278 220.307 61.1599C216.212 67.2133 207.682 68.2746 202.152 63.4185C198.236 59.9791 196.523 53.2953 198.003 47.2285C199.11 42.6925 202.649 38.8601 206.849 37.6486C208.541 37.1607 211.621 37.1313 213.379 37.5864ZM540.618 37.573C546.792 39.1567 550.646 45.2007 550.275 52.7175C550.058 57.1277 548.843 60.0562 546.084 62.8226C544.175 64.738 542.82 65.5407 540.501 66.1309C538.741 66.5792 535.232 66.4593 533.61 65.896C531.214 65.063 528.67 63.0217 527.141 60.7061C525.096 57.6074 524.253 52.6187 525.061 48.4005C526.117 42.8931 529.749 38.6952 534.449 37.5511C536.032 37.1658 539.072 37.1765 540.618 37.573ZM489.539 56.2662C491.043 56.4616 492.306 56.6484 492.345 56.6814C492.527 56.8322 491.651 59.616 491.142 60.5063C488.436 65.2377 483.821 67.7973 478.603 67.4616C476.327 67.315 474.992 66.8714 473.834 65.8766C472.624 64.8368 472.189 63.6148 472.294 61.5456C472.362 60.1791 472.479 59.7681 473.018 58.9863C475.057 56.033 480.654 55.1115 489.539 56.2662Z" fill="white"/>
</svg>
