<svg width="771" height="823" viewBox="0 0 771 823" fill="none" xmlns="http://www.w3.org/2000/svg">
<path d="M27 176H18V185H27V176Z" fill="#CE4FE5"/>
<path d="M135 185H27V194H135V185Z" fill="#CE4FE5"/>
<path d="M144 176H135V185H144V176Z" fill="#CE4FE5"/>
<path d="M36 149V158H126V149H144V140H117V149H45V140H18V149H36Z" fill="#485451"/>
<path d="M9 158H0V167H9V158Z" fill="#485451"/>
<path d="M18 149H9V158H18V149Z" fill="#485451"/>
<path d="M27 167H9V176H27V167Z" fill="#485451"/>
<path d="M162 158H153V167H162V158Z" fill="#485451"/>
<path d="M153 149H144V158H153V149Z" fill="#485451"/>
<path d="M153 167H135V176H153V167Z" fill="#485451"/>
<path d="M135 176H27V185H135V176Z" fill="#485451"/>
<path d="M126 149V158H36V149H18V158H27V167H135V158H144V149H126Z" fill="#82948F"/>
<path d="M108 149V122H99V140H90V122H99V113H90V104H81V140H54V149H108Z" fill="#2853E0"/>
<path d="M63 167H45V176H63V167Z" fill="#2853E0"/>
<path d="M90 167H72V176H90V167Z" fill="#2853E0"/>
<path d="M117 167H99V176H117V167Z" fill="#2853E0"/>
<path d="M27 158H18V167H27V158Z" fill="#2853E0"/>
<path d="M36 167H27V176H36V167Z" fill="#2853E0"/>
<path d="M144 158H135V167H144V158Z" fill="#2853E0"/>
<path d="M135 167H126V176H135V167Z" fill="#2853E0"/>
<path d="M63 113H54V122H63V113Z" fill="#5EB1FF"/>
<path d="M90 95H72V104H90V95Z" fill="#5EB1FF"/>
<path d="M72 104H63V113H72V104Z" fill="#5EB1FF"/>
<path d="M99 104H90V113H99V104Z" fill="#5EB1FF"/>
<path d="M63 122V140H81V113H72V122H63Z" fill="#5EB1FF"/>
<path d="M99 122H90V131H99V122Z" fill="#5EB1FF"/>
<path d="M108 113H99V122H108V113Z" fill="#5EB1FF"/>
<path d="M54 122H45V149H54V122Z" fill="#5EB1FF"/>
<path d="M117 122H108V149H117V122Z" fill="#5EB1FF"/>
<path d="M72 113H63V122H72V113Z" fill="white"/>
<path d="M81 104H72V113H81V104Z" fill="white"/>
<path d="M63 122H54V140H63V122Z" fill="white"/>
<path d="M72 167H63V176H72V167Z" fill="white"/>
<path d="M99 167H90V176H99V167Z" fill="white"/>
<path d="M18 158H9V167H18V158Z" fill="white"/>
<path d="M45 167H36V176H45V167Z" fill="white"/>
<path d="M153 158H144V167H153V158Z" fill="white"/>
<path d="M126 167H117V176H126V167Z" fill="white"/>
<path d="M99 131H90V140H99V131Z" fill="white"/>
<path d="M623 81H614V90H623V81Z" fill="#CE4FE5"/>
<path d="M731 90H623V99H731V90Z" fill="#CE4FE5"/>
<path d="M740 81H731V90H740V81Z" fill="#CE4FE5"/>
<path d="M632 54V63H722V54H740V45H713V54H641V45H614V54H632Z" fill="#485451"/>
<path d="M605 63H596V72H605V63Z" fill="#485451"/>
<path d="M614 54H605V63H614V54Z" fill="#485451"/>
<path d="M623 72H605V81H623V72Z" fill="#485451"/>
<path d="M758 63H749V72H758V63Z" fill="#485451"/>
<path d="M749 54H740V63H749V54Z" fill="#485451"/>
<path d="M749 72H731V81H749V72Z" fill="#485451"/>
<path d="M731 81H623V90H731V81Z" fill="#485451"/>
<path d="M722 54V63H632V54H614V63H623V72H731V63H740V54H722Z" fill="#82948F"/>
<path d="M704 54V27H695V45H686V27H695V18H686V9H677V45H650V54H704Z" fill="#2853E0"/>
<path d="M659 72H641V81H659V72Z" fill="#2853E0"/>
<path d="M686 72H668V81H686V72Z" fill="#2853E0"/>
<path d="M713 72H695V81H713V72Z" fill="#2853E0"/>
<path d="M623 63H614V72H623V63Z" fill="#2853E0"/>
<path d="M632 72H623V81H632V72Z" fill="#2853E0"/>
<path d="M740 63H731V72H740V63Z" fill="#2853E0"/>
<path d="M731 72H722V81H731V72Z" fill="#2853E0"/>
<path d="M659 18H650V27H659V18Z" fill="#5EB1FF"/>
<path d="M686 0H668V9H686V0Z" fill="#5EB1FF"/>
<path d="M668 9H659V18H668V9Z" fill="#5EB1FF"/>
<path d="M695 9H686V18H695V9Z" fill="#5EB1FF"/>
<path d="M659 27V45H677V18H668V27H659Z" fill="#5EB1FF"/>
<path d="M695 27H686V36H695V27Z" fill="#5EB1FF"/>
<path d="M704 18H695V27H704V18Z" fill="#5EB1FF"/>
<path d="M650 27H641V54H650V27Z" fill="#5EB1FF"/>
<path d="M713 27H704V54H713V27Z" fill="#5EB1FF"/>
<path d="M668 18H659V27H668V18Z" fill="white"/>
<path d="M677 9H668V18H677V9Z" fill="white"/>
<path d="M659 27H650V45H659V27Z" fill="white"/>
<path d="M668 72H659V81H668V72Z" fill="white"/>
<path d="M695 72H686V81H695V72Z" fill="white"/>
<path d="M614 63H605V72H614V63Z" fill="white"/>
<path d="M641 72H632V81H641V72Z" fill="white"/>
<path d="M749 63H740V72H749V63Z" fill="white"/>
<path d="M722 72H713V81H722V72Z" fill="white"/>
<path d="M695 36H686V45H695V36Z" fill="white"/>
<path d="M546 272H537V281H546V272Z" fill="#CE4FE5"/>
<path d="M654 281H546V290H654V281Z" fill="#CE4FE5"/>
<path d="M663 272H654V281H663V272Z" fill="#CE4FE5"/>
<path d="M555 245V254H645V245H663V236H636V245H564V236H537V245H555Z" fill="#485451"/>
<path d="M528 254H519V263H528V254Z" fill="#485451"/>
<path d="M537 245H528V254H537V245Z" fill="#485451"/>
<path d="M546 263H528V272H546V263Z" fill="#485451"/>
<path d="M681 254H672V263H681V254Z" fill="#485451"/>
<path d="M672 245H663V254H672V245Z" fill="#485451"/>
<path d="M672 263H654V272H672V263Z" fill="#485451"/>
<path d="M654 272H546V281H654V272Z" fill="#485451"/>
<path d="M645 245V254H555V245H537V254H546V263H654V254H663V245H645Z" fill="#82948F"/>
<path d="M627 245V218H618V236H609V218H618V209H609V200H600V236H573V245H627Z" fill="#2853E0"/>
<path d="M582 263H564V272H582V263Z" fill="#2853E0"/>
<path d="M609 263H591V272H609V263Z" fill="#2853E0"/>
<path d="M636 263H618V272H636V263Z" fill="#2853E0"/>
<path d="M546 254H537V263H546V254Z" fill="#2853E0"/>
<path d="M555 263H546V272H555V263Z" fill="#2853E0"/>
<path d="M663 254H654V263H663V254Z" fill="#2853E0"/>
<path d="M654 263H645V272H654V263Z" fill="#2853E0"/>
<path d="M582 209H573V218H582V209Z" fill="#5EB1FF"/>
<path d="M609 191H591V200H609V191Z" fill="#5EB1FF"/>
<path d="M591 200H582V209H591V200Z" fill="#5EB1FF"/>
<path d="M618 200H609V209H618V200Z" fill="#5EB1FF"/>
<path d="M582 218V236H600V209H591V218H582Z" fill="#5EB1FF"/>
<path d="M618 218H609V227H618V218Z" fill="#5EB1FF"/>
<path d="M627 209H618V218H627V209Z" fill="#5EB1FF"/>
<path d="M573 218H564V245H573V218Z" fill="#5EB1FF"/>
<path d="M636 218H627V245H636V218Z" fill="#5EB1FF"/>
<path d="M591 209H582V218H591V209Z" fill="white"/>
<path d="M600 200H591V209H600V200Z" fill="white"/>
<path d="M582 218H573V236H582V218Z" fill="white"/>
<path d="M591 263H582V272H591V263Z" fill="white"/>
<path d="M618 263H609V272H618V263Z" fill="white"/>
<path d="M537 254H528V263H537V254Z" fill="white"/>
<path d="M564 263H555V272H564V263Z" fill="white"/>
<path d="M672 254H663V263H672V254Z" fill="white"/>
<path d="M645 263H636V272H645V263Z" fill="white"/>
<path d="M618 227H609V236H618V227Z" fill="white"/>
<path d="M42 425H33V434H42V425Z" fill="#CE4FE5"/>
<path d="M150 434H42V443H150V434Z" fill="#CE4FE5"/>
<path d="M159 425H150V434H159V425Z" fill="#CE4FE5"/>
<path d="M51 398V407H141V398H159V389H132V398H60V389H33V398H51Z" fill="#485451"/>
<path d="M24 407H15V416H24V407Z" fill="#485451"/>
<path d="M33 398H24V407H33V398Z" fill="#485451"/>
<path d="M42 416H24V425H42V416Z" fill="#485451"/>
<path d="M177 407H168V416H177V407Z" fill="#485451"/>
<path d="M168 398H159V407H168V398Z" fill="#485451"/>
<path d="M168 416H150V425H168V416Z" fill="#485451"/>
<path d="M150 425H42V434H150V425Z" fill="#485451"/>
<path d="M141 398V407H51V398H33V407H42V416H150V407H159V398H141Z" fill="#82948F"/>
<path d="M123 398V371H114V389H105V371H114V362H105V353H96V389H69V398H123Z" fill="#2853E0"/>
<path d="M78 416H60V425H78V416Z" fill="#2853E0"/>
<path d="M105 416H87V425H105V416Z" fill="#2853E0"/>
<path d="M132 416H114V425H132V416Z" fill="#2853E0"/>
<path d="M42 407H33V416H42V407Z" fill="#2853E0"/>
<path d="M51 416H42V425H51V416Z" fill="#2853E0"/>
<path d="M159 407H150V416H159V407Z" fill="#2853E0"/>
<path d="M150 416H141V425H150V416Z" fill="#2853E0"/>
<path d="M78 362H69V371H78V362Z" fill="#5EB1FF"/>
<path d="M105 344H87V353H105V344Z" fill="#5EB1FF"/>
<path d="M87 353H78V362H87V353Z" fill="#5EB1FF"/>
<path d="M114 353H105V362H114V353Z" fill="#5EB1FF"/>
<path d="M78 371V389H96V362H87V371H78Z" fill="#5EB1FF"/>
<path d="M114 371H105V380H114V371Z" fill="#5EB1FF"/>
<path d="M123 362H114V371H123V362Z" fill="#5EB1FF"/>
<path d="M69 371H60V398H69V371Z" fill="#5EB1FF"/>
<path d="M132 371H123V398H132V371Z" fill="#5EB1FF"/>
<path d="M87 362H78V371H87V362Z" fill="white"/>
<path d="M96 353H87V362H96V353Z" fill="white"/>
<path d="M78 371H69V389H78V371Z" fill="white"/>
<path d="M87 416H78V425H87V416Z" fill="white"/>
<path d="M114 416H105V425H114V416Z" fill="white"/>
<path d="M33 407H24V416H33V407Z" fill="white"/>
<path d="M60 416H51V425H60V416Z" fill="white"/>
<path d="M168 407H159V416H168V407Z" fill="white"/>
<path d="M141 416H132V425H141V416Z" fill="white"/>
<path d="M114 380H105V389H114V380Z" fill="white"/>
<path d="M636 546H627V555H636V546Z" fill="#CE4FE5"/>
<path d="M744 555H636V564H744V555Z" fill="#CE4FE5"/>
<path d="M753 546H744V555H753V546Z" fill="#CE4FE5"/>
<path d="M645 519V528H735V519H753V510H726V519H654V510H627V519H645Z" fill="#485451"/>
<path d="M618 528H609V537H618V528Z" fill="#485451"/>
<path d="M627 519H618V528H627V519Z" fill="#485451"/>
<path d="M636 537H618V546H636V537Z" fill="#485451"/>
<path d="M771 528H762V537H771V528Z" fill="#485451"/>
<path d="M762 519H753V528H762V519Z" fill="#485451"/>
<path d="M762 537H744V546H762V537Z" fill="#485451"/>
<path d="M744 546H636V555H744V546Z" fill="#485451"/>
<path d="M735 519V528H645V519H627V528H636V537H744V528H753V519H735Z" fill="#82948F"/>
<path d="M717 519V492H708V510H699V492H708V483H699V474H690V510H663V519H717Z" fill="#2853E0"/>
<path d="M672 537H654V546H672V537Z" fill="#2853E0"/>
<path d="M699 537H681V546H699V537Z" fill="#2853E0"/>
<path d="M726 537H708V546H726V537Z" fill="#2853E0"/>
<path d="M636 528H627V537H636V528Z" fill="#2853E0"/>
<path d="M645 537H636V546H645V537Z" fill="#2853E0"/>
<path d="M753 528H744V537H753V528Z" fill="#2853E0"/>
<path d="M744 537H735V546H744V537Z" fill="#2853E0"/>
<path d="M672 483H663V492H672V483Z" fill="#5EB1FF"/>
<path d="M699 465H681V474H699V465Z" fill="#5EB1FF"/>
<path d="M681 474H672V483H681V474Z" fill="#5EB1FF"/>
<path d="M708 474H699V483H708V474Z" fill="#5EB1FF"/>
<path d="M672 492V510H690V483H681V492H672Z" fill="#5EB1FF"/>
<path d="M708 492H699V501H708V492Z" fill="#5EB1FF"/>
<path d="M717 483H708V492H717V483Z" fill="#5EB1FF"/>
<path d="M663 492H654V519H663V492Z" fill="#5EB1FF"/>
<path d="M726 492H717V519H726V492Z" fill="#5EB1FF"/>
<path d="M681 483H672V492H681V483Z" fill="white"/>
<path d="M690 474H681V483H690V474Z" fill="white"/>
<path d="M672 492H663V510H672V492Z" fill="white"/>
<path d="M681 537H672V546H681V537Z" fill="white"/>
<path d="M708 537H699V546H708V537Z" fill="white"/>
<path d="M627 528H618V537H627V528Z" fill="white"/>
<path d="M654 537H645V546H654V537Z" fill="white"/>
<path d="M762 528H753V537H762V528Z" fill="white"/>
<path d="M735 537H726V546H735V537Z" fill="white"/>
<path d="M708 501H699V510H708V501Z" fill="white"/>
<path d="M341 236H332V245H341V236Z" fill="white"/>
<path d="M341 227H332V236H341V227Z" fill="white"/>
<path d="M350 227H341V236H350V227Z" fill="white"/>
<path d="M341 218H332V227H341V218Z" fill="white"/>
<path d="M332 227H323V236H332V227Z" fill="white"/>
<path d="M359 209H350V218H359V209Z" fill="#FF8B00"/>
<path d="M359 245H350V254H359V245Z" fill="#FF8B00"/>
<path d="M368 245H359V254H368V245Z" fill="#7D93BE"/>
<path d="M368 254H359V263H368V254Z" fill="#FF8B00"/>
<path d="M341 200H332V209H341V200Z" fill="#FF8B00"/>
<path d="M314 200H305V209H314V200Z" fill="#FF8B00"/>
<path d="M305 200H296V209H305V200Z" fill="#7D93BE"/>
<path d="M305 236H296V245H305V236Z" fill="#FF8B00"/>
<path d="M305 254H296V263H305V254Z" fill="#FF8B00"/>
<path d="M296 200H287V209H296V200Z" fill="#FF8B00"/>
<path d="M296 218H287V227H296V218Z" fill="#FF8B00"/>
<path d="M296 236H287V245H296V236Z" fill="#FF8B00"/>
<path d="M386 209H377V218H386V209Z" fill="#FF8B00"/>
<path d="M386 227H377V236H386V227Z" fill="#FF8B00"/>
<path d="M386 245H377V254H386V245Z" fill="#FF8B00"/>
<path d="M386 254H377V263H386V254Z" fill="#FF8B00"/>
<path d="M314 263H305V272H314V263Z" fill="#FF8B00"/>
<path d="M323 263H314V272H323V263Z" fill="#4C628F"/>
<path d="M341 263H332V272H341V263Z" fill="#FF8B00"/>
<path d="M368 263H359V272H368V263Z" fill="#FF8B00"/>
<path d="M377 245H368V254H377V245Z" fill="#4C628F"/>
<path d="M377 227H368V236H377V227Z" fill="#7D93BE"/>
<path d="M377 218H368V227H377V218Z" fill="#FF8B00"/>
<path d="M377 209H368V218H377V209Z" fill="#7D93BE"/>
<path d="M377 200H368V209H377V200Z" fill="#FF8B00"/>
<path d="M350 191H341V200H350V191Z" fill="#FF8B00"/>
<path d="M323 191H314V200H323V191Z" fill="#FF8B00"/>
<path d="M305 263H296V272H305V263Z" fill="#FFF059"/>
<path d="M305 191H296V200H305V191Z" fill="#FFF059"/>
<path d="M368 182H359V191H368V182Z" fill="#FF8B00"/>
<path d="M350 182H341V191H350V182Z" fill="#4C628F"/>
<path d="M314 182H305V191H314V182Z" fill="#7D93BE"/>
<path d="M368 173H359V182H368V173Z" fill="#A62E19"/>
<path d="M350 173H341V182H350V173Z" fill="#A62E19"/>
<path d="M359 146H350V155H359V146Z" fill="#4C628F"/>
<path d="M341 164H332V173H341V164Z" fill="#39558B"/>
<path d="M323 164H314V173H323V164Z" fill="#A62E19"/>
<path d="M269 146H260V155H269V146Z" fill="#A62E19"/>
<path d="M260 308H251V317H260V308Z" fill="#A62E19"/>
<path d="M449 227H440V236H449V227Z" fill="#A62E19"/>
<path d="M422 155H413V164H422V155Z" fill="#A62E19"/>
<path d="M350 281H341V290H350V281Z" fill="#39558B"/>
<path d="M314 281H305V290H314V281Z" fill="#4C628F"/>
<path d="M395 245H386V254H395V245Z" fill="#A62E19"/>
<path d="M395 200H386V209H395V200Z" fill="#39558B"/>
<path d="M404 236H395V245H404V236Z" fill="#7D93BE"/>
<path d="M404 209H395V218H404V209Z" fill="#39558B"/>
<path d="M386 191H377V200H386V191Z" fill="#A62E19"/>
<path d="M305 173H296V182H305V173Z" fill="#A62E19"/>
<path d="M287 263H278V272H287V263Z" fill="#4C628F"/>
<path d="M377 164H368V173H377V164Z" fill="#A62E19"/>
<path d="M422 209H413V218H422V209Z" fill="#39558B"/>
<path d="M395 173H386V182H395V173Z" fill="#4C628F"/>
<path d="M413 263H404V272H413V263Z" fill="#4C628F"/>
<path d="M404 272H395V281H404V272Z" fill="#A62E19"/>
<path d="M431 245H422V254H431V245Z" fill="#39558B"/>
<path d="M431 200H422V209H431V200Z" fill="#4C628F"/>
<path d="M278 245H269V254H278V245Z" fill="#39558B"/>
<path d="M278 263H269V272H278V263Z" fill="#A62E19"/>
<path d="M269 218H260V227H269V218Z" fill="#7D93BE"/>
<path d="M323 155H314V164H323V155Z" fill="#7D93BE"/>
<path d="M332 146H323V155H332V146Z" fill="#39558B"/>
<path d="M314 137H305V146H314V137Z" fill="#4C628F"/>
<path d="M377 137H368V146H377V137Z" fill="#39558B"/>
<path d="M377 290H368V299H377V290Z" fill="#4C628F"/>
<path d="M341 290H332V299H341V290Z" fill="#A62E19"/>
<path d="M341 308H332V317H341V308Z" fill="#4C628F"/>
<path d="M368 308H359V317H368V308Z" fill="#39558B"/>
<path d="M323 317H314V326H323V317Z" fill="#39558B"/>
<path d="M386 299H377V308H386V299Z" fill="#39558B"/>
<path d="M305 290H296V299H305V290Z" fill="#A62E19"/>
<path d="M287 173H278V182H287V173Z" fill="#A62E19"/>
<path d="M287 281H278V290H287V281Z" fill="#A62E19"/>
<path d="M251 254H242V263H251V254Z" fill="#4C628F"/>
<path d="M251 200H242V209H251V200Z" fill="#A62E19"/>
<path d="M287 254H278V263H287V254Z" fill="#39558B"/>
<path d="M287 236H278V245H287V236Z" fill="#7D93BE"/>
<path d="M287 209H278V218H287V209Z" fill="#4C628F"/>
<path d="M341 272H332V281H341V272Z" fill="#FF8B00"/>
<path d="M350 236H341V245H350V236Z" fill="#FFF059"/>
<path d="M350 218H341V227H350V218Z" fill="#FFF059"/>
<path d="M332 218H323V227H332V218Z" fill="#FFF059"/>
<path d="M332 236H323V245H332V236Z" fill="#FFF059"/>
<path d="M332 245H323V254H332V245Z" fill="#A62E19"/>
<path d="M323 236H314V245H323V236Z" fill="#FF8B00"/>
<path d="M314 236H305V245H314V236Z" fill="#FFF059"/>
<path d="M314 227H305V236H314V227Z" fill="#4C628F"/>
<path d="M314 209H305V218H314V209Z" fill="#FFF059"/>
<path d="M332 200H323V209H332V200Z" fill="#7D93BE"/>
<path d="M350 200H341V209H350V200Z" fill="#39558B"/>
<path d="M359 200H350V209H359V200Z" fill="#FFF059"/>
<path d="M368 209H359V218H368V209Z" fill="#FFF059"/>
<path d="M368 227H359V236H368V227Z" fill="#39558B"/>
<path d="M368 236H359V245H368V236Z" fill="#FFF059"/>
<path d="M359 254H350V263H359V254Z" fill="#FFF059"/>
<path d="M341 254H332V263H341V254Z" fill="#FFF059"/>
<path d="M323 254H314V263H323V254Z" fill="#FFF059"/>
<path d="M323 218H314V227H323V218Z" fill="#FFF059"/>
<path d="M332 209H323V218H332V209Z" fill="#FFF059"/>
<path d="M350 209H341V218H350V209Z" fill="#FFF059"/>
<path d="M359 218H350V227H359V218Z" fill="#FFF059"/>
<path d="M359 236H350V245H359V236Z" fill="#FFF059"/>
<path d="M350 245H341V254H350V245Z" fill="#FFF059"/>
<path d="M323 227H314V236H323V227Z" fill="#FFF059"/>
<path d="M341 209H332V218H341V209Z" fill="#FFF059"/>
<path d="M359 227H350V236H359V227Z" fill="#FFF059"/>
<path d="M341 245H332V254H341V245Z" fill="#FFF059"/>
<path d="M358.555 636.911H351.489V645.156H358.555V636.911Z" fill="#485451"/>
<path d="M366.8 629.844H358.556V636.911H366.8V629.844Z" fill="#82948F"/>
<path d="M375.044 629.844H366.8V636.911H375.044V629.844Z" fill="#82948F"/>
<path d="M351.489 645.156H343.245V652.222H351.489V645.156Z" fill="#485451"/>
<path d="M382.111 636.911H375.044V645.156H382.111V636.911Z" fill="#485451"/>
<path d="M390.356 645.156H382.111V652.222H390.356V645.156Z" fill="#485451"/>
<path d="M343.244 660.467H336.178V668.711H343.244V660.467Z" fill="#485451"/>
<path d="M351.489 653.4H343.245V660.467H351.489V653.4Z" fill="#82948F"/>
<path d="M351.489 660.467H343.245V668.711H351.489V660.467Z" fill="#82948F"/>
<path d="M390.356 653.4H382.111V660.467H390.356V653.4Z" fill="#82948F"/>
<path d="M390.356 660.467H382.111V668.711H390.356V660.467Z" fill="#82948F"/>
<path d="M351.489 668.711H343.245V675.778H351.489V668.711Z" fill="#485451"/>
<path d="M358.555 645.156H351.489V652.222H358.555V645.156Z" fill="#82948F"/>
<path d="M358.555 653.4H351.489V660.467H358.555V653.4Z" fill="#82948F"/>
<path d="M358.555 660.467H351.489V668.711H358.555V660.467Z" fill="#82948F"/>
<path d="M358.555 668.711H351.489V675.778H358.555V668.711Z" fill="#82948F"/>
<path d="M366.8 684.022H358.556V691.089H366.8V684.022Z" fill="#1A252E"/>
<path d="M375.044 684.022H366.8V691.089H375.044V684.022Z" fill="#1A252E"/>
<path d="M351.489 675.778H343.245V684.022H351.489V675.778Z" fill="#1A252E"/>
<path d="M358.555 675.778H351.489V684.022H358.555V675.778Z" fill="#82948F"/>
<path d="M375.044 636.911H366.8V645.156H375.044V636.911Z" fill="#BCC7B4"/>
<path d="M366.8 645.156H358.556V652.222H366.8V645.156Z" fill="#82948F"/>
<path d="M366.8 636.911H358.556V645.156H366.8V636.911Z" fill="#BCC7B4"/>
<path d="M366.8 653.4H358.556V660.467H366.8V653.4Z" fill="#82948F"/>
<path d="M366.8 660.467H358.556V668.711H366.8V660.467Z" fill="#485451"/>
<path d="M366.8 668.711H358.556V675.778H366.8V668.711Z" fill="#485451"/>
<path d="M375.044 645.156H366.8V652.222H375.044V645.156Z" fill="#82948F"/>
<path d="M375.044 653.4H366.8V660.467H375.044V653.4Z" fill="#82948F"/>
<path d="M375.044 660.467H366.8V668.711H375.044V660.467Z" fill="#485451"/>
<path d="M375.044 668.711H366.8V675.778H375.044V668.711Z" fill="#485451"/>
<path d="M366.8 675.778H358.556V684.022H366.8V675.778Z" fill="#485451"/>
<path d="M375.044 675.778H366.8V684.022H375.044V675.778Z" fill="#485451"/>
<path d="M382.111 675.778H375.044V684.022H382.111V675.778Z" fill="#82948F"/>
<path d="M390.356 675.778H382.111V684.022H390.356V675.778Z" fill="#1A252E"/>
<path d="M390.356 668.711H382.111V675.778H390.356V668.711Z" fill="#485451"/>
<path d="M382.111 645.156H375.044V652.222H382.111V645.156Z" fill="#82948F"/>
<path d="M382.111 653.4H375.044V660.467H382.111V653.4Z" fill="#82948F"/>
<path d="M382.111 660.467H375.044V668.711H382.111V660.467Z" fill="#82948F"/>
<path d="M382.111 668.711H375.044V675.778H382.111V668.711Z" fill="#82948F"/>
<path d="M397.422 660.467H390.355V668.711H397.422V660.467Z" fill="#485451"/>
<path d="M397.422 668.711H390.355V675.778H397.422V668.711Z" fill="#1A252E"/>
<path d="M336.178 721.711H327.933V729.956H336.178V721.711Z" fill="#485451"/>
<path d="M343.244 714.644H336.178V721.711H343.244V714.644Z" fill="#1A252E"/>
<path d="M351.489 714.644H343.245V721.711H351.489V714.644Z" fill="#485451"/>
<path d="M358.555 714.644H351.489V721.711H358.555V714.644Z" fill="#1A252E"/>
<path d="M343.244 721.711H336.178V729.956H343.244V721.711Z" fill="#1A252E"/>
<path d="M351.489 721.711H343.245V729.956H351.489V721.711Z" fill="#485451"/>
<path d="M358.555 721.711H351.489V729.956H358.555V721.711Z" fill="#485451"/>
<path d="M343.244 729.956H336.178V738.2H343.244V729.956Z" fill="#485451"/>
<path d="M351.489 729.956H343.245V738.2H351.489V729.956Z" fill="#82948F"/>
<path d="M358.555 729.956H351.489V738.2H358.555V729.956Z" fill="#485451"/>
<path d="M366.8 721.711H358.556V729.956H366.8V721.711Z" fill="#1A252E"/>
<path d="M336.178 738.2H327.933V745.267H336.178V738.2Z" fill="#485451"/>
<path d="M343.244 745.267H336.178V753.511H343.244V745.267Z" fill="#485451"/>
<path d="M351.489 745.267H343.245V753.511H351.489V745.267Z" fill="#485451"/>
<path d="M358.555 745.267H351.489V753.511H358.555V745.267Z" fill="#485451"/>
<path d="M366.8 738.2H358.556V745.267H366.8V738.2Z" fill="#485451"/>
<path d="M336.178 729.956H327.933V738.2H336.178V729.956Z" fill="#1A252E"/>
<path d="M343.244 738.2H336.178V745.267H343.244V738.2Z" fill="#82948F"/>
<path d="M351.489 738.2H343.245V745.267H351.489V738.2Z" fill="#82948F"/>
<path d="M358.555 738.2H351.489V745.267H358.555V738.2Z" fill="#82948F"/>
<path d="M366.8 729.956H358.556V738.2H366.8V729.956Z" fill="#485451"/>
<path d="M375.044 721.711H366.8V729.956H375.044V721.711Z" fill="#1A252E"/>
<path d="M382.111 714.644H375.044V721.711H382.111V714.644Z" fill="#1A252E"/>
<path d="M390.356 714.644H382.111V721.711H390.356V714.644Z" fill="#485451"/>
<path d="M397.422 714.644H390.355V721.711H397.422V714.644Z" fill="#1A252E"/>
<path d="M382.111 721.711H375.044V729.956H382.111V721.711Z" fill="#485451"/>
<path d="M390.356 721.711H382.111V729.956H390.356V721.711Z" fill="#485451"/>
<path d="M397.422 721.711H390.355V729.956H397.422V721.711Z" fill="#1A252E"/>
<path d="M382.111 729.956H375.044V738.2H382.111V729.956Z" fill="#485451"/>
<path d="M390.356 729.956H382.111V738.2H390.356V729.956Z" fill="#82948F"/>
<path d="M397.422 729.956H390.355V738.2H397.422V729.956Z" fill="#485451"/>
<path d="M405.667 721.711H397.422V729.956H405.667V721.711Z" fill="#485451"/>
<path d="M375.044 738.2H366.8V745.267H375.044V738.2Z" fill="#485451"/>
<path d="M382.111 745.267H375.044V753.511H382.111V745.267Z" fill="#485451"/>
<path d="M390.356 745.267H382.111V753.511H390.356V745.267Z" fill="#485451"/>
<path d="M397.422 745.267H390.355V753.511H397.422V745.267Z" fill="#485451"/>
<path d="M405.667 738.2H397.422V745.267H405.667V738.2Z" fill="#485451"/>
<path d="M375.044 729.956H366.8V738.2H375.044V729.956Z" fill="#485451"/>
<path d="M382.111 738.2H375.044V745.267H382.111V738.2Z" fill="#82948F"/>
<path d="M390.356 738.2H382.111V745.267H390.356V738.2Z" fill="#82948F"/>
<path d="M397.422 738.2H390.355V745.267H397.422V738.2Z" fill="#82948F"/>
<path d="M405.667 729.956H397.422V738.2H405.667V729.956Z" fill="#1A252E"/>
<path d="M358.555 691.089H351.489V699.333H358.555V691.089Z" fill="#1A252E"/>
<path d="M351.489 699.333H343.245V706.4H351.489V699.333Z" fill="#BCC7B4"/>
<path d="M358.555 699.333H351.489V706.4H358.555V699.333Z" fill="#1A252E"/>
<path d="M358.555 706.4H351.489V714.644H358.555V706.4Z" fill="#1A252E"/>
<path d="M320.867 699.333H312.622V706.4H320.867V699.333Z" fill="#BCC7B4"/>
<path d="M320.867 706.4H312.622V714.644H320.867V706.4Z" fill="#82948F"/>
<path d="M327.933 706.4H320.867V714.644H327.933V706.4Z" fill="#485451"/>
<path d="M336.178 706.4H327.933V714.644H336.178V706.4Z" fill="#82948F"/>
<path d="M343.244 706.4H336.178V714.644H343.244V706.4Z" fill="#1A252E"/>
<path d="M351.489 706.4H343.245V714.644H351.489V706.4Z" fill="#485451"/>
<path d="M312.622 706.4H305.556V714.644H312.622V706.4Z" fill="#BCC7B4"/>
<path d="M312.622 714.644H305.556V721.711H312.622V714.644Z" fill="#1A252E"/>
<path d="M305.555 714.644H297.311V721.711H305.555V714.644Z" fill="#82948F"/>
<path d="M305.555 721.711H297.311V729.956H305.555V721.711Z" fill="#485451"/>
<path d="M305.555 729.956H297.311V738.2H305.555V729.956Z" fill="#485451"/>
<path d="M312.622 729.956H305.556V738.2H312.622V729.956Z" fill="#82948F"/>
<path d="M312.622 721.711H305.556V729.956H312.622V721.711Z" fill="#82948F"/>
<path d="M320.867 721.711H312.622V729.956H320.867V721.711Z" fill="#485451"/>
<path d="M320.867 714.644H312.622V721.711H320.867V714.644Z" fill="#485451"/>
<path d="M320.867 729.956H312.622V738.2H320.867V729.956Z" fill="#82948F"/>
<path d="M320.867 738.2H312.622V745.267H320.867V738.2Z" fill="#82948F"/>
<path d="M312.622 738.2H305.556V745.267H312.622V738.2Z" fill="#82948F"/>
<path d="M327.933 738.2H320.867V745.267H327.933V738.2Z" fill="#82948F"/>
<path d="M327.933 729.956H320.867V738.2H327.933V729.956Z" fill="#485451"/>
<path d="M327.933 721.711H320.867V729.956H327.933V721.711Z" fill="#1A252E"/>
<path d="M327.933 714.644H320.867V721.711H327.933V714.644Z" fill="#1A252E"/>
<path d="M336.178 714.644H327.933V721.711H336.178V714.644Z" fill="#485451"/>
<path d="M405.667 714.644H397.422V721.711H405.667V714.644Z" fill="#485451"/>
<path d="M343.244 668.711H336.178V675.778H343.244V668.711Z" fill="#1A252E"/>
<path d="M336.178 675.778H327.933V684.022H336.178V675.778Z" fill="#82948F"/>
<path d="M343.244 675.778H336.178V684.022H343.244V675.778Z" fill="#485451"/>
<path d="M336.178 684.022H327.933V691.089H336.178V684.022Z" fill="#82948F"/>
<path d="M336.178 691.089H327.933V699.333H336.178V691.089Z" fill="#BCC7B4"/>
<path d="M336.178 699.333H327.933V706.4H336.178V699.333Z" fill="#82948F"/>
<path d="M343.244 699.333H336.178V706.4H343.244V699.333Z" fill="#1A252E"/>
<path d="M343.244 691.089H336.178V699.333H343.244V691.089Z" fill="#BCC7B4"/>
<path d="M351.489 691.089H343.245V699.333H351.489V691.089Z" fill="#82948F"/>
<path d="M351.489 684.022H343.245V691.089H351.489V684.022Z" fill="#1A252E"/>
<path d="M343.244 684.022H336.178V691.089H343.244V684.022Z" fill="#82948F"/>
<path d="M358.555 684.022H351.489V691.089H358.555V684.022Z" fill="#485451"/>
<path d="M382.111 684.022H375.044V691.089H382.111V684.022Z" fill="#485451"/>
<path d="M390.356 684.022H382.111V691.089H390.356V684.022Z" fill="#1A252E"/>
<path d="M390.356 691.089H382.111V699.333H390.356V691.089Z" fill="#82948F"/>
<path d="M397.422 691.089H390.355V699.333H397.422V691.089Z" fill="#BCC7B4"/>
<path d="M397.422 699.333H390.355V706.4H397.422V699.333Z" fill="#1A252E"/>
<path d="M405.667 699.333H397.422V706.4H405.667V699.333Z" fill="#82948F"/>
<path d="M405.667 691.089H397.422V699.333H405.667V691.089Z" fill="#BCC7B4"/>
<path d="M397.422 684.022H390.355V691.089H397.422V684.022Z" fill="#82948F"/>
<path d="M405.667 706.4H397.422V714.644H405.667V706.4Z" fill="#82948F"/>
<path d="M397.422 706.4H390.355V714.644H397.422V706.4Z" fill="#1A252E"/>
<path d="M390.356 706.4H382.111V714.644H390.356V706.4Z" fill="#485451"/>
<path d="M397.422 675.778H390.355V684.022H397.422V675.778Z" fill="#485451"/>
<path d="M405.667 675.778H397.422V684.022H405.667V675.778Z" fill="#82948F"/>
<path d="M405.667 684.022H397.422V691.089H405.667V684.022Z" fill="#82948F"/>
<path d="M297.311 729.956H290.245V738.2H297.311V729.956Z" fill="#BCC7B4"/>
<path d="M290.244 729.956H282V738.2H290.244V729.956Z" fill="#82948F"/>
<path d="M297.311 721.711H290.245V729.956H297.311V721.711Z" fill="#82948F"/>
<path d="M290.244 738.2H282V745.267H290.244V738.2Z" fill="#485451"/>
<path d="M297.311 738.2H290.245V745.267H297.311V738.2Z" fill="#82948F"/>
<path d="M305.555 738.2H297.311V745.267H305.555V738.2Z" fill="#485451"/>
<path d="M297.311 745.267H290.245V753.511H297.311V745.267Z" fill="#485451"/>
<path d="M420.978 699.333H412.733V706.4H420.978V699.333Z" fill="#BCC7B4"/>
<path d="M420.978 706.4H412.733V714.644H420.978V706.4Z" fill="#82948F"/>
<path d="M412.733 706.4H405.667V714.644H412.733V706.4Z" fill="#485451"/>
<path d="M428.044 706.4H420.978V714.644H428.044V706.4Z" fill="#BCC7B4"/>
<path d="M428.044 714.644H420.978V721.711H428.044V714.644Z" fill="#1A252E"/>
<path d="M436.289 714.644H428.044V721.711H436.289V714.644Z" fill="#82948F"/>
<path d="M436.289 721.711H428.044V729.956H436.289V721.711Z" fill="#485451"/>
<path d="M436.289 729.956H428.044V738.2H436.289V729.956Z" fill="#485451"/>
<path d="M428.044 729.956H420.978V738.2H428.044V729.956Z" fill="#82948F"/>
<path d="M428.044 721.711H420.978V729.956H428.044V721.711Z" fill="#82948F"/>
<path d="M420.978 721.711H412.733V729.956H420.978V721.711Z" fill="#485451"/>
<path d="M420.978 714.644H412.733V721.711H420.978V714.644Z" fill="#485451"/>
<path d="M420.978 729.956H412.733V738.2H420.978V729.956Z" fill="#82948F"/>
<path d="M420.978 738.2H412.733V745.267H420.978V738.2Z" fill="#82948F"/>
<path d="M428.044 738.2H420.978V745.267H428.044V738.2Z" fill="#82948F"/>
<path d="M412.733 738.2H405.667V745.267H412.733V738.2Z" fill="#82948F"/>
<path d="M412.733 729.956H405.667V738.2H412.733V729.956Z" fill="#485451"/>
<path d="M412.733 721.711H405.667V729.956H412.733V721.711Z" fill="#1A252E"/>
<path d="M412.733 714.644H405.667V721.711H412.733V714.644Z" fill="#1A252E"/>
<path d="M443.356 729.956H436.289V738.2H443.356V729.956Z" fill="#BCC7B4"/>
<path d="M451.6 729.956H443.355V738.2H451.6V729.956Z" fill="#82948F"/>
<path d="M443.356 721.711H436.289V729.956H443.356V721.711Z" fill="#82948F"/>
<path d="M451.6 738.2H443.355V745.267H451.6V738.2Z" fill="#485451"/>
<path d="M443.356 738.2H436.289V745.267H443.356V738.2Z" fill="#82948F"/>
<path d="M436.289 738.2H428.044V745.267H436.289V738.2Z" fill="#485451"/>
<path d="M443.356 745.267H436.289V753.511H443.356V745.267Z" fill="#485451"/>
<path d="M382.111 691.089H375.044V699.333H382.111V691.089Z" fill="#1A252E"/>
<path d="M382.111 699.333H375.044V706.4H382.111V699.333Z" fill="#1A252E"/>
<path d="M390.356 699.333H382.111V706.4H390.356V699.333Z" fill="#BCC7B4"/>
<path d="M382.111 706.4H375.044V714.644H382.111V706.4Z" fill="#1A252E"/>
<path d="M336.178 668.711H327.933V675.778H336.178V668.711Z" fill="#485451"/>
<path d="M405.667 668.711H397.422V675.778H405.667V668.711Z" fill="#485451"/>
<path d="M366.8 699.333H358.556V706.4H366.8V699.333Z" fill="#2853E0"/>
<path d="M375.044 699.333H366.8V706.4H375.044V699.333Z" fill="#2853E0"/>
<path d="M366.8 691.089H358.556V699.333H366.8V691.089Z" fill="#5EB1FF"/>
<path d="M375.044 691.089H366.8V699.333H375.044V691.089Z" fill="#5EB1FF"/>
<path d="M366.8 714.644H358.556V721.711H366.8V714.644Z" fill="#2853E0"/>
<path d="M375.044 714.644H366.8V721.711H375.044V714.644Z" fill="#2853E0"/>
<path d="M366.8 706.4H358.556V714.644H366.8V706.4Z" fill="#2853E0"/>
<path d="M375.044 706.4H366.8V714.644H375.044V706.4Z" fill="#2853E0"/>
<path d="M358.555 753.511H351.489V760.578H358.555V753.511Z" fill="white"/>
<path d="M351.489 753.511H343.245V760.578H351.489V753.511Z" fill="white"/>
<path d="M343.244 753.511H336.178V760.578H343.244V753.511Z" fill="white"/>
<path d="M336.178 753.511H327.933V760.578H336.178V753.511Z" fill="#5EB1FF"/>
<path d="M366.8 753.511H358.556V760.578H366.8V753.511Z" fill="#5EB1FF"/>
<path d="M366.8 760.578H358.556V768.822H366.8V760.578Z" fill="#5EB1FF"/>
<path d="M358.555 760.578H351.489V768.822H358.555V760.578Z" fill="white"/>
<path d="M351.489 760.578H343.245V768.822H351.489V760.578Z" fill="white"/>
<path d="M343.244 760.578H336.178V768.822H343.244V760.578Z" fill="white"/>
<path d="M336.178 760.578H327.933V768.822H336.178V760.578Z" fill="#5EB1FF"/>
<path d="M343.244 768.822H336.178V775.889H343.244V768.822Z" fill="white"/>
<path d="M351.489 768.822H343.245V775.889H351.489V768.822Z" fill="white"/>
<path d="M358.555 768.822H351.489V775.889H358.555V768.822Z" fill="white"/>
<path d="M358.555 775.889H351.489V784.133H358.555V775.889Z" fill="#5EB1FF"/>
<path d="M351.489 775.889H343.245V784.133H351.489V775.889Z" fill="white"/>
<path d="M343.244 775.889H336.178V784.133H343.244V775.889Z" fill="#5EB1FF"/>
<path d="M343.244 784.133H336.178V791.2H343.244V784.133Z" fill="#2853E0"/>
<path d="M351.489 784.133H343.245V791.2H351.489V784.133Z" fill="#5EB1FF"/>
<path d="M358.555 784.133H351.489V791.2H358.555V784.133Z" fill="#2853E0"/>
<path d="M351.489 791.2H343.245V799.444H351.489V791.2Z" fill="#5EB1FF"/>
<path d="M351.489 799.444H343.245V806.511H351.489V799.444Z" fill="#5EB1FF"/>
<path d="M351.489 814.756H343.245V823H351.489V814.756Z" fill="#2853E0"/>
<path d="M397.422 753.511H390.355V760.578H397.422V753.511Z" fill="white"/>
<path d="M390.356 753.511H382.111V760.578H390.356V753.511Z" fill="white"/>
<path d="M382.111 753.511H375.044V760.578H382.111V753.511Z" fill="white"/>
<path d="M375.044 753.511H366.8V760.578H375.044V753.511Z" fill="#5EB1FF"/>
<path d="M405.667 753.511H397.422V760.578H405.667V753.511Z" fill="#5EB1FF"/>
<path d="M405.667 760.578H397.422V768.822H405.667V760.578Z" fill="#5EB1FF"/>
<path d="M397.422 760.578H390.355V768.822H397.422V760.578Z" fill="white"/>
<path d="M390.356 760.578H382.111V768.822H390.356V760.578Z" fill="white"/>
<path d="M382.111 760.578H375.044V768.822H382.111V760.578Z" fill="white"/>
<path d="M375.044 760.578H366.8V768.822H375.044V760.578Z" fill="#5EB1FF"/>
<path d="M382.111 768.822H375.044V775.889H382.111V768.822Z" fill="white"/>
<path d="M390.356 768.822H382.111V775.889H390.356V768.822Z" fill="white"/>
<path d="M397.422 768.822H390.355V775.889H397.422V768.822Z" fill="white"/>
<path d="M397.422 775.889H390.355V784.133H397.422V775.889Z" fill="#5EB1FF"/>
<path d="M390.356 775.889H382.111V784.133H390.356V775.889Z" fill="white"/>
<path d="M382.111 775.889H375.044V784.133H382.111V775.889Z" fill="#5EB1FF"/>
<path d="M382.111 784.133H375.044V791.2H382.111V784.133Z" fill="#2853E0"/>
<path d="M390.356 784.133H382.111V791.2H390.356V784.133Z" fill="#5EB1FF"/>
<path d="M397.422 784.133H390.355V791.2H397.422V784.133Z" fill="#2853E0"/>
<path d="M390.356 791.2H382.111V799.444H390.356V791.2Z" fill="#5EB1FF"/>
<path d="M390.356 799.444H382.111V806.511H390.356V799.444Z" fill="#5EB1FF"/>
<path d="M390.356 814.756H382.111V823H390.356V814.756Z" fill="#2853E0"/>
<path d="M297.311 753.511H290.245V760.578H297.311V753.511Z" fill="#FFF059"/>
<path d="M297.311 760.578H290.245V768.822H297.311V760.578Z" fill="#FF8B00"/>
<path d="M297.311 768.822H290.245V775.889H297.311V768.822Z" fill="#A62E19"/>
<path d="M443.356 753.511H436.289V760.578H443.356V753.511Z" fill="#FFF059"/>
<path d="M443.356 760.578H436.289V768.822H443.356V760.578Z" fill="#FF8B00"/>
<path d="M443.356 768.822H436.289V775.889H443.356V768.822Z" fill="#A62E19"/>
<path d="M343.244 429.622H336.178V436.689H343.244V429.622Z" fill="#2853E0"/>
<path d="M336.178 421.378H327.933V429.622H336.178V421.378Z" fill="#2853E0"/>
<path d="M336.178 406.067H327.933V414.311H336.178V406.067Z" fill="white"/>
<path d="M336.178 436.689H327.933V444.933H336.178V436.689Z" fill="#2853E0"/>
<path d="M343.244 421.378H336.178V429.622H343.244V421.378Z" fill="#5EB1FF"/>
<path d="M336.178 414.311H327.933V421.378H336.178V414.311Z" fill="#5EB1FF"/>
<path d="M343.244 406.067H336.178V414.311H343.244V406.067Z" fill="#5EB1FF"/>
<path d="M336.178 399H327.933V406.067H336.178V399Z" fill="white"/>
<path d="M343.244 399H336.178V406.067H343.244V399Z" fill="white"/>
<path d="M351.489 560.356H343.245V567.422H351.489V560.356Z" fill="#2853E0"/>
<path d="M358.555 552.111H351.489V560.356H358.555V552.111Z" fill="#2853E0"/>
<path d="M351.489 552.111H343.245V560.356H351.489V552.111Z" fill="#5EB1FF"/>
<path d="M358.555 545.044H351.489V552.111H358.555V545.044Z" fill="#5EB1FF"/>
<path d="M351.489 545.044H343.245V552.111H351.489V545.044Z" fill="#5EB1FF"/>
<path d="M358.555 536.8H351.489V545.044H358.555V536.8Z" fill="white"/>
<path d="M351.489 536.8H343.245V545.044H351.489V536.8Z" fill="white"/>
</svg>
