<svg width="495" height="468" viewBox="0 0 495 468" fill="none" xmlns="http://www.w3.org/2000/svg">
<path d="M37.45 233.63H25.0898V242.98H37.45V233.63Z" fill="#F8AF4E"/>
<path d="M470.23 224.29H457.87V233.63H470.23V224.29Z" fill="#F8AF4E"/>
<path d="M172.65 256.68H168.99V261.1H172.65V256.68Z" fill="#FFDE04"/>
<path d="M190.89 225.68H187.24V230.1H190.89V225.68Z" fill="#FFFAD5"/>
<path d="M187.24 225.68H183.59V230.1H187.24V225.68Z" fill="#FFFAD5"/>
<path d="M183.59 225.68H179.95V230.1H183.59V225.68Z" fill="#FFFAD5"/>
<path d="M179.95 225.68H176.29V230.1H179.95V225.68Z" fill="#FFFAD5"/>
<path d="M176.28 225.68H172.64V230.1H176.28V225.68Z" fill="#FFFAD5"/>
<path d="M172.65 225.68H168.99V230.1H172.65V225.68Z" fill="#FFFAD5"/>
<path d="M168.99 225.68H165.35V230.1H168.99V225.68Z" fill="#FFFAD5"/>
<path d="M165.35 225.68H161.69V230.1H165.35V225.68Z" fill="#FFFAD5"/>
<path d="M161.69 225.68H158.06V230.1H161.69V225.68Z" fill="#FFFAD5"/>
<path d="M158.05 225.68H154.39V230.1H158.05V225.68Z" fill="#FFFAD5"/>
<path d="M154.4 225.68H150.75V230.1H154.4V225.68Z" fill="#FFFAD5"/>
<path d="M132.5 216.83H128.84V221.24H132.5V216.83Z" fill="#F7A407"/>
<path d="M132.5 181.39H128.84V185.82H132.5V181.39Z" fill="#FDEE5B"/>
<path d="M132.5 176.97H128.84V181.4H132.5V176.97Z" fill="#FDEE5B"/>
<path d="M172.65 172.52H168.99V176.97H172.65V172.52Z" fill="#FFFAD5"/>
<path d="M132.5 172.52H128.84V176.97H132.5V172.52Z" fill="#FDEE5B"/>
<path d="M172.65 168.1H168.99V172.52H172.65V168.1Z" fill="#FFFAD5"/>
<path d="M132.5 168.1H128.84V172.52H132.5V168.1Z" fill="#FDEE5B"/>
<path d="M172.65 163.68H168.99V168.11H172.65V163.68Z" fill="#FFFAD5"/>
<path d="M132.5 163.68H128.84V168.11H132.5V163.68Z" fill="#FDEE5B"/>
<path d="M172.65 159.25H168.99V163.68H172.65V159.25Z" fill="#FFFAD5"/>
<path d="M132.5 159.25H128.84V163.68H132.5V159.25Z" fill="#FDEE5B"/>
<path d="M172.65 154.82H168.99V159.25H172.65V154.82Z" fill="#FFFAD5"/>
<path d="M132.5 154.82H128.84V159.25H132.5V154.82Z" fill="#FDEE5B"/>
<path d="M172.65 150.39H168.99V154.83H172.65V150.39Z" fill="#FFFAD5"/>
<path d="M172.65 145.96H168.99V150.39H172.65V145.96Z" fill="#FFFAD5"/>
<path d="M172.65 141.52H168.99V145.95H172.65V141.52Z" fill="#FFFAD5"/>
<path d="M172.65 137.1H168.99V141.52H172.65V137.1Z" fill="#FFFAD5"/>
<path d="M132.5 83.9501H128.84V88.39H132.5V83.9501Z" fill="#FFFBE0"/>
<path d="M128.85 83.9501H125.19V88.39H128.85V83.9501Z" fill="#FFFAD5"/>
<path d="M125.18 83.9501H121.54V88.39H125.18V83.9501Z" fill="#FFFAD5"/>
<path d="M132.5 79.53H128.84V83.9401H132.5V79.53Z" fill="#FDEE5B"/>
<path d="M132.5 75.1H128.84V79.53H132.5V75.1Z" fill="#FDEE5B"/>
<path d="M132.5 70.6801H128.84V75.11H132.5V70.6801Z" fill="#FDEE5B"/>
<path d="M132.5 66.25H128.84V70.6801H132.5V66.25Z" fill="#FDEE5B"/>
<path d="M161.69 52.96H158.06V57.39H161.69V52.96Z" fill="#FDF39D"/>
<path d="M158.05 52.96H154.39V57.39H158.05V52.96Z" fill="#FDF39D"/>
<path d="M154.4 52.96H150.75V57.39H154.4V52.96Z" fill="#FDF39D"/>
<path d="M150.75 52.96H147.1V57.39H150.75V52.96Z" fill="#FDF39D"/>
<path d="M147.1 52.96H143.45V57.39H147.1V52.96Z" fill="#FDF39D"/>
<path d="M143.44 52.96H139.8V57.39H143.44V52.96Z" fill="#FDF39D"/>
<path d="M305.39 268.88H300.94V273.78H305.39V268.88Z" fill="#FECE01"/>
<path d="M305.39 259.07H300.94V263.98H305.39V259.07Z" fill="#F7A407"/>
<path d="M345.51 224.77H341.05V229.67H345.51V224.77Z" fill="#F7A407"/>
<path d="M394.54 185.55H390.08V190.44H394.54V185.55Z" fill="#F8AF4E"/>
<path d="M390.08 185.55H385.63V190.44H390.08V185.55Z" fill="#F8AF4E"/>
<path d="M385.63 185.55H381.17V190.44H385.63V185.55Z" fill="#F8AF4E"/>
<path d="M198.2 278.83H194.54H190.89H187.24H183.59H179.95V283.25H183.59H187.24H190.89H194.54H198.2H201.84H202.87V278.83H201.84H198.2Z" fill="#F8AB06"/>
<path d="M168.99 265.54V269.96H172.65V265.54V261.1H168.99V265.54Z" fill="#F8AB06"/>
<path d="M128.84 194.68V199.11V203.54V207.96V212.4V216.83H132.5V212.4V207.96V203.54V199.11V194.68V190.25H128.84V194.68Z" fill="#F8AB06"/>
<path d="M305.39 263.98H300.94V268.88H305.39V263.98Z" fill="#F8AB06"/>
<path d="M341.05 214.96V219.85V224.77H345.51V219.85V214.96V210.06H341.05V214.96Z" fill="#F8AB06"/>
<path d="M354.43 205.14V210.06H358.88H363.34V205.14H358.88H354.43Z" fill="#F8AB06"/>
<path d="M367.8 165.94H363.34V170.83H367.8H372.26V165.94H367.8Z" fill="#F8AB06"/>
<path d="M154.4 247.82H150.75V252.25H154.4H158.06H161.69V247.82H158.06H154.4Z" fill="#FDC301"/>
<path d="M292.02 268.88H287.57H283.1H278.65H274.2H269.73H265.28H260.81H256.36V273.78H260.81H265.28H269.73H274.2H278.65H283.1H287.57H292.02H296.47H300.94V268.88H296.47H292.02Z" fill="#FDC301"/>
<path d="M256.36 259.07V254.18V249.28H252.94V249.88V254.08V254.18V258.29V259.07V262.48V263.98V266.69V268.88H256.36V263.98V259.07Z" fill="#FDC301"/>
<path d="M332.13 234.56V239.47H336.6V234.56V229.67H332.13V234.56Z" fill="#FDC301"/>
<path d="M296.47 214.96V210.06V205.14V200.25H292.02V205.14V210.06V214.96V219.85H296.47V214.96Z" fill="#FDC301"/>
<path d="M332.13 77.71V82.6V87.51V92.42V97.3201V102.21V107.12V112.02V116.92V121.82V126.73V131.63V136.53V141.43H336.6V136.53V131.63V126.73V121.82V116.92V112.02V107.12V102.21V97.3201V92.42V87.51V82.6V77.71V72.8H332.13V77.71Z" fill="#FDC301"/>
<path d="M349.97 67.9H345.51H341.05H336.6V72.8H341.05H345.51H349.97H354.43V67.9H349.97Z" fill="#FDC301"/>
<path d="M161.69 256.68V261.1H165.35H168.99V256.68H165.35H161.69Z" fill="#FFD900"/>
<path d="M132.5 216.83V221.25H136.14H139.8V216.83H136.14H132.5Z" fill="#FFD900"/>
<path d="M234.07 327.69H229.62V332.61H234.07V327.69Z" fill="#FFD900"/>
<path d="M252.94 270.89V273.78H256.36V268.88H252.94V270.89Z" fill="#FFD900"/>
<path d="M305.39 259.07V263.98H309.85H314.31V259.07H309.85H305.39Z" fill="#FFD900"/>
<path d="M260.81 244.37V249.28H265.28V244.37V239.47H260.81V244.37Z" fill="#FFD900"/>
<path d="M345.51 224.77V229.67H349.97H354.43V224.77H349.97H345.51Z" fill="#FFD900"/>
<path d="M305.39 195.35V190.45H300.94V195.35V200.25H305.39V195.35Z" fill="#FFD900"/>
<path d="M336.6 67.9H332.13V72.8H336.6V67.9Z" fill="#FFD900"/>
<path d="M390.08 23.78H385.63H381.17H376.71H372.26H367.8H363.34H358.88H354.43H349.97H345.51H341.05H336.6H332.13H327.68H323.23H318.76H314.31H309.85H305.39H300.94H296.47H292.02H287.57H283.1H278.65H274.2H269.73H265.28H260.81H256.36H252.94V27.17V28.6901H256.36H260.81H265.28H269.73H274.2H278.65H283.1H287.57H292.02H296.47H300.94H305.39H309.85H314.31H318.76H323.23H327.68H332.13H336.6H341.05H345.51H349.97H354.43H358.88H363.34H367.8H372.26H376.71H381.17H385.63H390.08H394.54V23.78H390.08Z" fill="#FFD900"/>
<path d="M183.59 199.11H179.95V194.68V190.25V185.82V181.39V176.97H176.29H172.65H168.99V172.52V168.1V163.68V159.25V154.82V150.39V145.96V141.52V137.1H165.35H161.69V132.67V128.26V123.81V119.39V114.96V110.54V106.09V101.68V97.25V92.8201V88.39V83.9501V79.53V75.1V70.6801V66.25V61.8201V57.39H158.06H154.4H150.75H147.1H143.45H139.8V61.8201V66.25H136.14H132.5V70.6801V75.1V79.53V83.9501V88.39H128.84H125.19H121.54V92.8201V97.25V101.68V106.09V110.54V114.96V119.39V123.81V128.26V132.67V137.1V141.52V145.96V150.39V154.82H125.19H128.84H132.5V159.25V163.68V168.1V172.52V176.97V181.39V185.82H136.14H139.8V190.25V194.68V199.11V203.54V207.96H143.45H147.1H150.75V212.4V216.83V221.25V225.68H154.4H158.06H161.69H165.35H168.99H172.65H176.29H179.95H183.59H187.24H190.89V221.25V216.83V212.4V207.96V203.54V199.11H187.24H183.59Z" fill="white"/>
<path d="M482.59 65.41V56.0701H470.27V46.74H425.78V48.3101H403.5V38.48H412.42V18.89H408.42V0H86.9102V4.23999H81.3901V48.53H70.4402V46.74H25.0901V56.0701H12.7101V65.41H0.350098V168.21H12.7101V205.64H25.0901V233.64H37.4402V271.02H49.8102V280.36H70.4402V278.84H121.54V269.97H139.8V278.84H150.8V287.7H148.8V289.7H173.53V299.04H198.27V336.42H210.64V420.53H148.8V467.24H346.57V420.54H284.76V332.64H283.1V308.12H292.02V298.33H323.27V288.52H332.17V278.64H341.09V268.84H354.47V259.03H363.38V268.84H372.27V278.64H425.75V280.31H433.14V270.97H445.51V261.64H457.88V224.25H470.27V186.86H482.63V149.48H495V65.37L482.59 65.41ZM260.02 345.76V420.54H235.27V332.64H229.6V327.72H220.68V287.72H221.88V279.31H202.88V283.31H179.96V270.02H168.96V261.16H161.66V252.31H150.72V239.02H139.72V221.31H128.72V190.31H121.42V137.16H110.42V48.59H202.7V48.26H252.77V48.37H381.17V97.37H372.27V170.88H363.35V87.5601H354.44V72.85H336.61V141.48H323.27V170.88H314.27V190.5H305.35V200.3H296.43V219.9H283.06V229.64H274.16V239.44H265.27V249.25H256.35V268.85H300.93V259.04H314.27V249.25H323.27V239.44H332.17V229.64H341.09V210.03H354.47V180.64H363.38V210.06H354.47V229.64H341.09V249.25H332.17V259.04H323.27V268.85H314.27V278.65H274.16V298.27H260.77V332.64H259.98V345.79L260.02 345.76ZM321.85 448.57H173.46V439.21H321.85V448.57ZM396.04 18.89H394.54V28.6901H252.94V27.17H202.87V26.38H99.6401V17.52H252.94V18.7001H396.04V18.89ZM49.8102 233.64V214.94H37.4402V196.26H25.0901V65.41H70.4402V66.25H92.3401V159.25H99.6401V207.96H110.64V230.1H121.64V238.96H110.64V252.25H99.6401V261.1H70.4402V252.32H62.1802V242.98H49.8102V233.64ZM470.27 158.88V177.56H457.87V205.56H445.5V233.56H433.13V252.25H425.74V249.25H421.27V259.04H381.17V249.25H372.27V214.93H381.18V185.52H394.55V107.09H403.47V67.87H425.75V65.38H470.27V158.85V158.88Z" fill="#F39205"/>
<path d="M297.13 439.21H284.76H272.38H260.02H247.66H235.29H222.92H210.57H198.2H185.83H173.46V448.57H185.83H198.2H210.57H222.92H235.29H247.66H260.02H272.38H284.76H297.13H309.48H321.85V439.21H309.48H297.13Z" fill="#FDEB19"/>
<path d="M383.67 18.7001H371.31H358.94H346.58H334.22H321.85H309.48H297.13H284.76H272.38H260.02H252.94V17.52H249.29H245.64H242H238.34H234.68H231.04H227.39H223.74H220.09H216.44H212.79H209.13H205.5H201.84H198.2H194.54H190.89H187.24H183.59H179.95H176.29H172.65H168.99H165.35H161.69H158.06H154.4H150.75H147.1H143.45H139.8H136.14H132.5H128.84H125.19H121.54H117.9H114.24H110.59H106.95H103.29H99.6401V21.9501V26.38H103.29H106.95H110.59H114.24H117.9H121.54H125.19H128.84H132.5H136.14H139.8H143.45H147.1H150.75H154.4H158.06H161.69H165.35H168.99H172.65H176.29H179.95H183.59H187.24H190.89H194.54H198.2H201.84H202.87V23.78V27.17H203.88H204.88H205.88H206.88H207.9H208.88H209.9H210.9H211.9H212.9H213.9H214.9H215.9H216.9H217.9H218.91H219.91H220.9H221.9H222.91H223.91H224.91H225.9H226.91H227.91H228.91H229.91H230.91H231.91H232.93H233.92H234.93H235.92H236.93H237.93H238.93H239.93H240.93H241.93H242.93H243.93H244.94H245.94H246.94H247.94H248.94H249.94H250.94H251.94H252.94V23.78H256.36H260.81H265.28H269.73H274.2H278.65H283.1H287.57H292.02H296.47H300.94H305.39H309.85H314.31H318.76H323.23H327.68H332.13H336.6H341.05H345.51H349.97H354.43H358.88H363.34H367.8H372.26H376.71H381.17H385.63H390.08H394.54V18.89H396.04V18.7001H383.67Z" fill="#FDEB19"/>
<path d="M345.51 210.06V214.96V219.85V224.77H349.97H354.43V219.85V214.96V210.06H349.97H345.51Z" fill="#FDEB19"/>
<path d="M354.43 180.64V185.55V190.45V195.35V200.25V205.14H358.88H363.34V200.25V195.35V190.45V185.55V180.64H358.88H354.43Z" fill="#FDEB19"/>
<path d="M372.26 48.3101H367.8H363.34H358.88H354.43H349.97H345.51H341.05H336.6H332.13H327.68H323.23H318.76H314.31H309.85H305.39H300.94H296.47H292.02H287.57H283.1H278.65H274.2H269.73H265.28H260.81H256.36H252.94V48.2001H251.94H250.94H249.94H248.94H247.94H246.94H245.94H244.94H243.93H242.93H241.93H240.93H239.93H238.93H237.93H236.93H235.92H234.93H233.92H232.93H231.91H230.91H229.91H228.91H227.91H226.91H225.9H224.91H223.91H222.91H221.9H220.9H219.91H218.91H217.9H216.9H215.9H214.9H213.9H212.9H211.9H210.9H209.9H208.88H207.9H206.88H205.88H204.88H203.88H202.87V48.3101V48.53H201.84H198.2H194.54H190.89H187.24H183.59H179.95H176.29H172.65H168.99H165.35H161.69H158.06H154.4H150.75H147.1H143.45H139.8H136.14H132.5H128.84H125.19H121.54H117.9H114.24H110.59V52.96V57.39V61.8201V66.25V70.6801V75.1V79.53V83.9501V88.39V92.8201V97.25V101.68V106.09V110.54V114.96V119.39V123.81V128.26V132.67V137.1H114.24H117.9H121.54V132.67V128.26V123.81V119.39V114.96V110.54V106.09V101.68V97.25V92.8201V88.39V83.9501H125.19H128.84V79.53V75.1V70.6801V66.25H132.5H136.14H139.8V61.8201V57.39V52.96H143.45H147.1H150.75H154.4H158.06H161.69V57.39V61.8201V66.25V70.6801V75.1V79.53V83.9501V88.39V92.8201V97.25V101.68V106.09V110.54V114.96V119.39V123.81V128.26V132.67V137.1H165.35H168.99H172.65V141.52V145.96V150.39V154.82V159.25V163.68V168.1V172.52V176.97H176.29H179.95V181.39V185.82V190.25V194.68V199.11H183.59H187.24H190.89V203.54V207.96V212.4V216.83V221.25V225.68V230.1H187.24H183.59H179.95H176.29H172.65H168.99H165.35H161.69H158.06H154.4H150.75V225.68V221.25V216.83V212.4V207.96H147.1H143.45H139.8V203.54V199.11V194.68V190.25V185.82H136.14H132.5H128.84V181.39V176.97V172.52V168.1V163.68V159.25V154.82H125.19H121.54V159.25V163.68V168.1V172.52V176.97V181.39V185.82V190.25H125.19H128.84H132.5V194.68V199.11V203.54V207.96V212.4V216.83H136.14H139.8V221.25V225.68V230.1V234.54V238.96H143.45H147.1H150.75V243.4V247.82H154.4H158.06H161.69V252.25V256.68H165.35H168.99H172.65V261.1V265.54V269.96H176.29H179.95V274.4V278.83H183.59H187.24H190.89H194.54H198.2H201.84H202.87V278.68V279.28H203.88H204.88H205.88H206.88H207.9H208.88H209.9H210.9H211.9H212.9H213.9H214.9H215.9H216.9H217.9H218.91H219.91H220.9H221.9V283.5V287.69H220.9H220.7V288.49V293.39V298.3V303.2V308.08V313V317.91V322.79V327.7H225.15H229.62H234.07V332.61H235.29V336.43V345.77V355.11V364.46V373.8V383.14V392.49V401.83V411.18V420.54H247.66H260.02V411.18V401.83V392.49V383.14V373.8V364.46V355.11V345.77V336.43V332.61H260.81V327.7V322.79V317.91V313V308.08V303.2V298.3H265.28H269.73H274.2V293.39V288.49V283.59V278.68H278.65H283.1H287.57H292.02H296.47H300.94H305.39H309.85H314.31V273.78V268.88H318.76H323.23V263.98V259.07H327.68H332.13V254.18V249.28H336.6H341.05V244.37V239.47V234.56V229.67H336.6V234.56V239.47H332.13H327.68H323.23V244.37V249.28H318.76H314.31V254.18V259.07V263.98H309.85H305.39V268.88V273.78H300.94H296.47H292.02H287.57H283.1H278.65H274.2H269.73H265.28H260.81H256.36H252.94V270.89V268.88V266.69V263.98V262.48V259.07V258.29V254.18V254.08V249.88V249.28H256.36H260.81V244.37V239.47H265.28H269.73H274.2V234.56V229.67H278.65H283.1V224.77V219.85H287.57H292.02V214.96V210.06V205.14V200.25H296.47H300.94V195.35V190.45H305.39H309.85H314.31V185.55V180.64V175.75V170.83H318.76H323.23V165.94V161.04V156.14V151.23V146.33V141.43H327.68H332.13V136.53V131.63V126.73V121.82V116.92V112.02V107.12V102.21V97.3201V92.42V87.51V82.6V77.71V72.8V67.9H336.6H341.05H345.51H349.97H354.43V72.8V77.71V82.6V87.51H358.88H363.34V92.42V97.3201V102.21V107.12V112.02V116.92V121.82V126.73V131.63V136.53V141.43V146.33V151.23V156.14V161.04V165.94H367.8H372.26V161.04V156.14V151.23V146.33V141.43V136.53V131.63V126.73V121.82V116.92V112.02V107.12V102.21V97.3201H376.71H381.17V92.42V87.51V82.6V77.71V72.8V67.9V63V58.1V53.2001V48.3101H376.71H372.26Z" fill="#FDEB19"/>
</svg>
